<svg width="58" height="55" viewBox="0 0 58 55" fill="none" xmlns="http://www.w3.org/2000/svg">
<path d="M20.1498 4.32193C21.5392 3.42099 22.8128 2.63268 23.9706 1.73174C27.4441 -0.633213 30.9177 -0.520596 34.507 1.73174C39.0225 4.54717 42.9592 8.03829 46.5485 11.8673C50.3694 15.8089 53.8429 19.8631 56.5059 24.593C57.0849 25.4939 57.4322 26.6201 57.7796 27.6336C58.2427 29.2103 57.3164 30.4491 55.5797 30.6743C54.1902 30.8995 52.6851 30.8995 51.1799 30.8995C50.2536 30.8995 49.9062 31.2374 49.9062 32.1383C49.9062 36.7556 49.9062 41.2603 49.9062 45.8776C49.9062 47.9047 49.0958 49.2561 47.4748 49.5939C45.9696 49.8192 44.3486 49.8192 42.7276 49.7065C42.4961 49.7065 41.9171 49.0308 42.0329 48.693C42.0329 48.3551 42.4961 47.7921 42.9592 47.6794C43.6539 47.5668 44.3486 47.6794 45.0433 47.5668C47.2432 47.5668 47.5906 47.229 47.5906 45.0893C47.5906 40.8098 47.5906 36.5304 47.5906 32.3635C47.5906 29.5481 48.6326 28.5346 51.5272 28.5346C52.8008 28.5346 54.0745 28.5346 55.5797 28.5346C55.3481 27.8589 55.3481 27.2958 55.1165 26.8453C53.4955 24.2551 51.8746 21.5523 50.022 19.1874C45.6222 13.6691 40.6435 8.60138 34.7385 4.54717C30.223 1.50651 28.602 1.39388 24.0864 4.43454C22.3497 5.67333 20.7287 7.02473 18.9919 8.37614C18.6446 8.71399 18.1814 9.05184 17.7183 9.5023C17.7183 7.58782 17.7183 6.01118 17.7183 4.20931C15.8657 4.20931 14.129 4.09669 12.3922 4.32193C12.0449 4.32193 11.5817 5.11024 11.466 5.56071C11.2344 6.68688 11.1186 7.81305 11.0028 8.93922C10.887 11.0789 10.7712 13.2187 10.7712 15.3584C10.7712 16.3719 10.4239 17.0476 9.84498 17.836C7.87665 20.5388 5.79254 23.129 4.05578 25.9444C2.4348 28.422 2.66637 28.6472 5.56097 28.6472C6.48724 28.6472 7.5293 28.6472 8.45557 28.7598C10.1923 28.985 11.0028 29.9986 11.0028 31.6878C11.0028 36.3051 11.0028 40.8098 11.0028 45.4271C11.0028 47.229 11.466 47.6794 13.3185 47.6794C14.0132 47.6794 14.7079 47.6794 15.4026 47.6794C16.2131 47.6794 16.6762 48.1299 16.5604 48.8056C16.4447 49.2561 15.8657 49.8192 15.4026 49.8192C14.129 49.9318 12.8554 49.9318 11.6975 49.8192C9.96076 49.7066 8.80292 48.4678 8.68714 46.5533C8.57135 42.8369 8.68714 39.2332 8.68714 35.5168C8.68714 34.3907 8.68714 33.2645 8.68714 32.1383C8.68714 31.35 8.45557 31.0121 7.5293 31.0121C6.02411 31.0121 4.6347 31.0121 3.1295 30.8995C1.16118 30.6743 0.119121 29.2103 0.929609 27.4084C2.08745 25.0434 3.82421 22.6785 5.21362 20.4262C5.56097 19.8631 5.79254 19.5252 6.25567 18.9621C7.99243 16.935 8.68714 14.5701 8.68714 12.0925C8.68714 9.61492 8.91871 7.47521 9.26606 5.11025C9.61341 2.85791 10.887 1.95697 13.0869 1.95697C14.3606 1.95697 15.6342 1.95697 16.792 1.95697C19.1077 1.73174 19.455 2.06959 20.1498 4.32193Z" fill="white"/>
<path d="M35.8968 51.6216C36.1283 48.4683 36.2441 45.315 36.4757 42.2744C36.5915 40.5851 36.3599 39.1211 35.2021 37.8823C33.118 35.7426 34.16 31.9136 35.5494 30.4496C36.823 29.0982 38.7914 29.0982 40.065 30.4496C41.4544 32.0262 42.4965 35.7426 40.4123 37.8823C39.2545 39.1211 39.0229 40.5851 39.1387 42.2744C39.3703 45.8781 39.6019 49.4819 39.8334 53.0856C39.9492 54.2118 39.1387 55.0001 37.9809 55.0001C36.7073 55.0001 36.0126 54.3244 36.0126 53.0856C35.8968 52.5225 35.8968 52.0721 35.8968 51.6216Z" fill="white"/>
<path d="M22.6967 42.1614C22.6967 45.4273 22.6967 48.8058 22.6967 52.0717C22.6967 52.6348 22.8125 53.3105 22.4651 53.7609C22.1178 54.2114 21.4231 54.6619 20.8442 54.7745C20.1495 54.8871 19.339 54.5493 19.2232 53.6483C19.1074 53.1979 19.1074 52.6348 19.1074 52.1843C19.2232 49.7067 19.339 47.2292 19.4548 44.8642C19.4548 43.9633 19.1074 43.2876 18.5285 42.6119C17.9496 42.0488 17.4864 41.2604 17.3707 40.4721C17.2549 38.5576 17.2549 36.6431 17.3707 34.7287C17.4864 32.9268 18.2969 31.5754 19.5705 30.3366C20.1495 29.7735 20.7284 29.4356 21.6547 29.6609C22.5809 29.9987 22.6967 30.7871 22.6967 31.4628C22.6967 33.8277 22.6967 36.1927 22.6967 38.5576C22.6967 39.7964 22.6967 41.0352 22.6967 42.1614Z" fill="white"/>
<path d="M27.6756 49.819C27.5598 50.1568 27.444 50.4947 27.444 50.8325C27.444 51.8461 27.5598 52.747 27.3282 53.7606C27.3282 54.0984 26.7493 54.4363 26.5177 54.7741C26.2862 54.4363 25.823 54.0984 25.823 53.7606C25.7073 51.8461 25.7073 49.9316 25.823 48.0171C25.823 47.454 26.2862 46.6657 26.7493 46.3278C27.9072 45.4269 28.1387 44.1881 28.0229 42.8367C27.7914 39.1204 27.5598 35.404 27.3282 31.575C27.2125 30.111 28.3703 29.21 29.7597 29.6605C30.8018 29.8857 31.1491 30.5614 31.1491 31.575C30.9175 34.9535 30.8018 38.4446 30.5702 41.8232C30.5702 42.4989 30.3386 43.2872 30.4544 43.9629C30.5702 44.6386 30.8018 45.4269 31.2649 45.7648C32.3069 46.6657 32.6543 47.6793 32.6543 49.0307C32.5385 50.6073 32.6543 52.0713 32.6543 53.648C32.6543 54.211 32.6543 54.8867 31.8438 54.7741C31.4965 54.6615 31.0333 54.0984 31.0333 53.648C30.9175 52.8596 31.0333 52.0713 30.9175 51.283C30.9175 50.8325 30.5702 50.3821 30.4544 49.9316C30.3386 50.3821 30.1071 50.8325 29.9913 51.1704C29.8755 51.9587 30.1071 52.8596 29.8755 53.648C29.7597 53.9858 29.4123 54.3237 29.065 54.7741C28.8334 54.4363 28.2545 54.0984 28.2545 53.7606C28.1387 52.8596 28.2545 51.8461 28.1387 50.8325C28.1387 50.4947 27.9072 50.1568 27.9072 49.819C27.9072 49.819 27.7914 49.819 27.6756 49.819Z" fill="white"/>
<path d="M27.6756 11.4165H21.5391V17.3852H27.6756V11.4165Z" fill="white"/>
<path d="M35.7803 11.4165H29.6438V17.3852H35.7803V11.4165Z" fill="white"/>
<path d="M27.6756 18.8496H21.5391V24.8183H27.6756V18.8496Z" fill="white"/>
<path d="M35.7803 18.8496H29.6438V24.8183H35.7803V18.8496Z" fill="white"/>
</svg>
