<svg width="184" height="184" viewBox="0 0 184 184" fill="none" xmlns="http://www.w3.org/2000/svg">
<circle cx="92" cy="92" r="89" fill="#010101" stroke="white" stroke-width="6"/>
<path d="M78.7524 39.3208C80.453 38.2117 82.012 37.2412 83.4291 36.132C87.6807 33.2204 91.9323 33.3591 96.3255 36.132C101.853 39.5981 106.671 43.8962 111.064 48.6101C115.741 53.4627 119.993 58.454 123.252 64.2771C123.961 65.3863 124.386 66.7727 124.811 68.0205C125.378 69.9616 124.244 71.4867 122.118 71.764C120.418 72.0413 118.575 72.0413 116.733 72.0413C115.599 72.0413 115.174 72.4572 115.174 73.5664C115.174 79.2508 115.174 84.7967 115.174 90.4812C115.174 92.9768 114.182 94.6405 112.198 95.0565C110.356 95.3338 108.372 95.3338 106.388 95.1951C106.104 95.1951 105.396 94.3632 105.537 93.9473C105.537 93.5314 106.104 92.8381 106.671 92.6995C107.521 92.5608 108.372 92.6995 109.222 92.5608C111.915 92.5608 112.34 92.1449 112.34 89.5106C112.34 84.2421 112.34 78.9736 112.34 73.8437C112.34 70.3775 113.615 69.1297 117.158 69.1297C118.717 69.1297 120.276 69.1297 122.118 69.1297C121.835 68.2978 121.835 67.6046 121.551 67.05C119.567 63.8612 117.583 60.5337 115.316 57.6221C109.931 50.8285 103.837 44.5894 96.609 39.5981C91.0819 35.8547 89.0979 35.7161 83.5709 39.4595C81.4451 40.9846 79.461 42.6483 77.3352 44.3121C76.9101 44.728 76.3432 45.144 75.7763 45.6985C75.7763 43.3416 75.7763 41.4005 75.7763 39.1822C73.5088 39.1822 71.3831 39.0436 69.2573 39.3208C68.8321 39.3208 68.2653 40.2914 68.1235 40.8459C67.8401 42.2324 67.6984 43.6189 67.5567 45.0053C67.4149 47.6396 67.2732 50.2739 67.2732 52.9081C67.2732 54.156 66.8481 54.9878 66.1395 55.9583C63.7303 59.2858 61.1793 62.4747 59.0535 65.9409C57.0695 68.9911 57.3529 69.2683 60.8959 69.2683C62.0296 69.2683 63.3051 69.2684 64.4389 69.407C66.5646 69.6843 67.5567 70.9321 67.5567 73.0118C67.5567 78.6963 67.5567 84.2421 67.5567 89.9266C67.5567 92.1449 68.1235 92.6995 70.391 92.6995C71.2413 92.6995 72.0917 92.6995 72.942 92.6995C73.934 92.6995 74.5009 93.2541 74.3591 94.0859C74.2174 94.6405 73.5088 95.3338 72.942 95.3338C71.3831 95.4724 69.8242 95.4724 68.407 95.3338C66.2812 95.1951 64.864 93.67 64.7223 91.313C64.5806 86.7377 64.7223 82.3011 64.7223 77.7257C64.7223 76.3393 64.7223 74.9528 64.7223 73.5664C64.7223 72.5959 64.4389 72.1799 63.3051 72.1799C61.4628 72.1799 59.7621 72.1799 57.9198 72.0413C55.5106 71.764 54.2351 69.9616 55.2271 67.7432C56.6443 64.8317 58.7701 61.9201 60.4707 59.1472C60.8959 58.454 61.1793 58.038 61.7462 57.3448C63.872 54.8492 64.7223 51.9376 64.7223 48.8874C64.7223 45.8372 65.0057 43.2029 65.4309 40.2914C65.856 37.5185 67.4149 36.4093 70.1076 36.4093C71.6665 36.4093 73.2254 36.4093 74.6426 36.4093C77.477 36.132 77.9021 36.5479 78.7524 39.3208Z" fill="white"/>
<path d="M98.0272 97.553C98.3106 93.6709 98.4523 89.7888 98.7358 86.0454C98.8775 83.9657 98.594 82.1633 97.1769 80.6382C94.6259 78.0039 95.9014 73.29 97.602 71.4876C99.1609 69.8238 101.57 69.8238 103.129 71.4876C104.83 73.4286 106.105 78.0039 103.554 80.6382C102.137 82.1633 101.854 83.9657 101.995 86.0454C102.279 90.4821 102.562 94.9187 102.846 99.3554C102.987 100.742 101.995 101.712 100.578 101.712C99.0192 101.712 98.1689 100.88 98.1689 99.3554C98.0272 98.6622 98.0272 98.1076 98.0272 97.553Z" fill="white"/>
<path d="M81.8685 85.9058C81.8685 89.9265 81.8685 94.0859 81.8685 98.1066C81.8685 98.7999 82.0102 99.6317 81.5851 100.186C81.1599 100.741 80.3096 101.295 79.601 101.434C78.7507 101.573 77.7587 101.157 77.617 100.048C77.4752 99.4931 77.4752 98.7999 77.4752 98.2453C77.6169 95.1951 77.7587 92.1448 77.9004 89.2333C77.9004 88.1241 77.4752 87.2922 76.7666 86.4604C76.058 85.7671 75.4912 84.7966 75.3495 83.8261C75.2077 81.4691 75.2077 79.1121 75.3495 76.7551C75.4912 74.5368 76.4832 72.873 78.0421 71.3479C78.7507 70.6547 79.4593 70.2388 80.593 70.5161C81.7268 70.932 81.8685 71.9025 81.8685 72.7344C81.8685 75.646 81.8685 78.5575 81.8685 81.4691C81.8685 82.9942 81.8685 84.5193 81.8685 85.9058Z" fill="white"/>
<path d="M87.9636 95.3332C87.8219 95.7492 87.6802 96.1651 87.6802 96.581C87.6802 97.8288 87.8219 98.938 87.5385 100.186C87.5385 100.602 86.8299 101.018 86.5464 101.434C86.263 101.018 85.6961 100.602 85.6961 100.186C85.5544 97.8289 85.5544 95.4719 85.6961 93.1149C85.6961 92.4217 86.263 91.4511 86.8299 91.0352C88.2471 89.926 88.5305 88.4009 88.3888 86.7372C88.1053 82.1619 87.8219 77.5865 87.5385 72.8726C87.3968 71.0702 88.8139 69.961 90.5146 70.5156C91.79 70.7929 92.2152 71.6247 92.2152 72.8726C91.9317 77.0319 91.79 81.33 91.5066 85.4894C91.5066 86.3212 91.2232 87.2918 91.3649 88.1236C91.5066 88.9555 91.79 89.926 92.3569 90.342C93.6324 91.4511 94.0575 92.699 94.0575 94.3627C93.9158 96.3038 94.0575 98.1061 94.0575 100.047C94.0575 100.74 94.0575 101.572 93.0655 101.434C92.6403 101.295 92.0735 100.602 92.0735 100.047C91.9317 99.0767 92.0735 98.1062 91.9317 97.1356C91.9317 96.581 91.5066 96.0265 91.3649 95.4719C91.2232 96.0265 90.9397 96.581 90.798 96.997C90.6563 97.9675 90.9397 99.0767 90.6563 100.047C90.5146 100.463 90.0894 100.879 89.6643 101.434C89.3808 101.018 88.6722 100.602 88.6722 100.186C88.5305 99.0767 88.6722 97.8288 88.5305 96.581C88.5305 96.1651 88.2471 95.7492 88.2471 95.3332C88.2471 95.3332 88.1053 95.3332 87.9636 95.3332Z" fill="white"/>
<path d="M87.9652 48.0552H80.4541V55.4034H87.9652V48.0552Z" fill="white"/>
<path d="M97.8851 48.0552H90.374V55.4034H97.8851V48.0552Z" fill="white"/>
<path d="M87.9652 57.2061H80.4541V64.5543H87.9652V57.2061Z" fill="white"/>
<path d="M97.8851 57.2061H90.374V64.5543H97.8851V57.2061Z" fill="white"/>
<mask id="mask0_0_1" style="mask-type:luminance" maskUnits="userSpaceOnUse" x="35" y="107" width="7" height="21">
<path d="M41.5106 107.571H35V127.775H41.5106V107.571Z" fill="white"/>
</mask>
<g mask="url(#mask0_0_1)">
<path d="M55.6303 121.164L51.4141 114.535L29.4203 127.922L33.6366 134.552L55.6303 121.164Z" fill="#FFDD00"/>
<path d="M51.3774 114.483L47.1611 107.854L25.1674 121.241L29.3836 127.871L51.3774 114.483Z" fill="#ED1C24"/>
<path d="M47.1615 107.861L42.9453 101.231L20.9516 114.619L25.1678 121.249L47.1615 107.861Z" fill="white"/>
</g>
<path d="M57.3325 127.843H50.9619L43.6813 120.241C43.0512 119.556 42.7012 118.734 42.7012 117.707C42.7012 116.885 42.9812 116.131 43.5412 115.515L50.0518 108.118H56.2824L48.4417 116.2C47.9517 116.679 47.6716 117.159 47.6716 117.638C47.6716 118.118 48.0217 118.665 48.6517 119.35L57.3325 127.843Z" fill="white"/>
<path d="M63.493 127.843H58.3125V108.118H63.493V127.843Z" fill="white"/>
<path d="M103.186 127.843H89.3244C87.2942 127.843 86.2441 126.816 86.2441 124.829V108.118H91.4246V122.569C91.4246 123.049 91.4946 123.391 91.7046 123.597C91.9146 123.802 92.2647 123.871 92.7547 123.871H103.116V127.843H103.186Z" fill="white"/>
<path d="M124.328 127.843V111.132C124.328 109.077 125.378 108.118 127.408 108.118H138.189C140.22 108.118 141.55 108.666 142.39 109.693C143.16 110.789 143.58 112.364 143.58 114.556C143.58 119.076 142.04 121.336 139.029 121.336H137.559V121.473L144 127.774H137.629L133.079 122.638C133.009 122.569 132.869 122.364 132.589 122.158C132.379 121.953 132.169 121.747 132.099 121.61C131.959 121.473 131.819 121.336 131.679 121.131C131.539 120.926 131.399 120.72 131.329 120.515C131.259 120.309 131.259 120.104 131.259 119.898V119.419C131.259 118.734 131.469 118.254 131.959 118.049C132.449 117.775 133.219 117.638 134.199 117.638H135.879C136.789 117.638 137.419 117.433 137.769 116.953C138.119 116.474 138.259 115.72 138.259 114.693C138.259 113.666 138.049 112.981 137.699 112.57C137.349 112.159 136.649 111.954 135.669 111.954H130.839C130.349 111.954 129.999 112.022 129.789 112.227C129.579 112.433 129.509 112.775 129.509 113.255V127.706H124.328V127.843Z" fill="white"/>
<path d="M43.8048 134.8V141.78C43.8048 141.927 43.7314 142 43.5848 142H43.1648C43.0181 142 42.9448 141.927 42.9448 141.78V134.8C42.9448 134.653 43.0181 134.58 43.1648 134.58H43.5848C43.7314 134.58 43.8048 134.653 43.8048 134.8ZM46.2552 137.33L46.2852 137.78C46.3652 137.687 46.4686 137.593 46.5952 137.5C46.7219 137.407 46.8619 137.323 47.0152 137.25C47.1686 137.177 47.3286 137.117 47.4952 137.07C47.6619 137.023 47.8186 137 47.9652 137C48.2519 137 48.5119 137.057 48.7452 137.17C48.9786 137.277 49.1752 137.423 49.3352 137.61C49.5019 137.797 49.6286 138.017 49.7152 138.27C49.8019 138.523 49.8452 138.797 49.8452 139.09V141.75C49.8452 141.83 49.8219 141.893 49.7752 141.94C49.7286 141.98 49.6719 142 49.6052 142H49.1952C49.1019 142 49.0419 141.98 49.0152 141.94C48.9886 141.9 48.9752 141.84 48.9752 141.76V139.09C48.9752 138.923 48.9452 138.767 48.8852 138.62C48.8319 138.467 48.7519 138.337 48.6452 138.23C48.5386 138.117 48.4086 138.027 48.2552 137.96C48.1086 137.893 47.9386 137.86 47.7452 137.86C47.5786 137.86 47.4086 137.89 47.2352 137.95C47.0619 138.01 46.9052 138.09 46.7652 138.19C46.6252 138.29 46.5086 138.403 46.4152 138.53C46.3286 138.657 46.2852 138.787 46.2852 138.92V141.78C46.2852 141.927 46.2119 142 46.0652 142H45.6552C45.5019 142 45.4252 141.927 45.4252 141.78V137.33C45.4252 137.257 45.4452 137.203 45.4852 137.17C45.5319 137.13 45.5852 137.11 45.6452 137.11H46.0252C46.1652 137.11 46.2419 137.183 46.2552 137.33ZM54.0982 134.58H59.2382C59.2982 134.58 59.3515 134.6 59.3982 134.64C59.4449 134.673 59.4715 134.727 59.4782 134.8V135.21C59.4782 135.277 59.4582 135.333 59.4182 135.38C59.3782 135.427 59.3182 135.45 59.2382 135.45H57.1082V141.78C57.1082 141.84 57.0882 141.893 57.0482 141.94C57.0082 141.98 56.9515 142 56.8782 142H56.4682C56.4015 142 56.3449 141.98 56.2982 141.94C56.2582 141.9 56.2382 141.847 56.2382 141.78V135.45H54.0982C53.9449 135.45 53.8682 135.37 53.8682 135.21V134.8C53.8682 134.653 53.9449 134.58 54.0982 134.58ZM61.4415 134.8V137.78C61.5215 137.687 61.6248 137.593 61.7515 137.5C61.8782 137.407 62.0182 137.323 62.1715 137.25C62.3248 137.177 62.4848 137.117 62.6515 137.07C62.8182 137.023 62.9748 137 63.1215 137C63.4082 137 63.6682 137.057 63.9015 137.17C64.1348 137.277 64.3315 137.423 64.4915 137.61C64.6582 137.797 64.7848 138.017 64.8715 138.27C64.9582 138.523 65.0015 138.797 65.0015 139.09V141.75C65.0015 141.83 64.9782 141.893 64.9315 141.94C64.8848 141.98 64.8282 142 64.7615 142H64.3515C64.2582 142 64.1982 141.98 64.1715 141.94C64.1448 141.9 64.1315 141.84 64.1315 141.76V139.09C64.1315 138.923 64.1082 138.767 64.0615 138.62C64.0215 138.467 63.9548 138.337 63.8615 138.23C63.7682 138.117 63.6448 138.027 63.4915 137.96C63.3448 137.893 63.1648 137.86 62.9515 137.86C62.7915 137.86 62.6248 137.89 62.4515 137.95C62.2782 138.01 62.1182 138.093 61.9715 138.2C61.8315 138.307 61.7115 138.433 61.6115 138.58C61.5115 138.72 61.4548 138.873 61.4415 139.04V141.78C61.4415 141.927 61.3682 142 61.2215 142H60.8115C60.6582 142 60.5815 141.927 60.5815 141.78V134.8C60.5815 134.653 60.6548 134.58 60.8015 134.58H61.2115C61.2782 134.58 61.3315 134.6 61.3715 134.64C61.4182 134.68 61.4415 134.733 61.4415 134.8ZM68.4797 142.12C68.153 142.12 67.8464 142.053 67.5597 141.92C67.273 141.787 67.023 141.607 66.8097 141.38C66.5964 141.147 66.4264 140.873 66.2997 140.56C66.1797 140.247 66.1197 139.913 66.1197 139.56C66.1197 139.207 66.1797 138.873 66.2997 138.56C66.4264 138.247 66.5964 137.973 66.8097 137.74C67.023 137.507 67.273 137.323 67.5597 137.19C67.8464 137.057 68.153 136.99 68.4797 136.99C68.7864 136.99 69.073 137.053 69.3397 137.18C69.613 137.3 69.8497 137.467 70.0497 137.68C70.2564 137.893 70.4197 138.143 70.5397 138.43C70.6597 138.717 70.7197 139.023 70.7197 139.35V139.47C70.7197 139.67 70.6564 139.797 70.5297 139.85C70.403 139.903 70.2497 139.93 70.0697 139.93H66.9997C67.0597 140.33 67.2264 140.657 67.4997 140.91C67.7797 141.157 68.1064 141.28 68.4797 141.28C68.6797 141.28 68.8797 141.243 69.0797 141.17C69.2864 141.097 69.4697 140.993 69.6297 140.86C69.6764 140.813 69.7364 140.79 69.8097 140.79C69.8564 140.79 69.893 140.81 69.9197 140.85L70.1997 141.27C70.2264 141.297 70.2397 141.327 70.2397 141.36C70.233 141.407 70.2097 141.447 70.1697 141.48C70.1364 141.513 70.103 141.54 70.0697 141.56C69.843 141.713 69.5997 141.847 69.3397 141.96C69.0797 142.067 68.793 142.12 68.4797 142.12ZM67.0397 139.19H69.8697C69.8364 139.003 69.7764 138.827 69.6897 138.66C69.603 138.493 69.4964 138.35 69.3697 138.23C69.243 138.103 69.0997 138.007 68.9397 137.94C68.7864 137.867 68.6264 137.83 68.4597 137.83C68.2864 137.83 68.123 137.867 67.9697 137.94C67.8164 138.007 67.6764 138.103 67.5497 138.23C67.4297 138.35 67.323 138.493 67.2297 138.66C67.143 138.827 67.0797 139.003 67.0397 139.19ZM78.9667 141.68H78.5767C78.4967 141.68 78.4301 141.62 78.3767 141.5L76.0767 136.09L75.5267 141.78C75.5267 141.927 75.4501 142 75.2967 142H74.8767C74.7301 142 74.6567 141.927 74.6567 141.78C74.7767 140.607 74.8967 139.443 75.0167 138.29C75.1367 137.137 75.2567 135.973 75.3767 134.8C75.3767 134.733 75.4001 134.68 75.4467 134.64C75.4934 134.6 75.5501 134.58 75.6167 134.58H76.2367C76.3434 134.58 76.4167 134.643 76.4567 134.77L78.7767 140.35C79.1634 139.417 79.5501 138.487 79.9367 137.56C80.3234 136.633 80.7101 135.703 81.0967 134.77C81.1301 134.643 81.2001 134.58 81.3067 134.58H81.9567C82.0234 134.58 82.0767 134.603 82.1167 134.65C82.1567 134.69 82.1767 134.74 82.1767 134.8L82.9067 141.78C82.9067 141.927 82.8301 142 82.6767 142H82.2567C82.1101 142 82.0367 141.927 82.0367 141.78L81.4767 136.09L79.1767 141.5C79.1301 141.62 79.0601 141.68 78.9667 141.68ZM83.8345 139.56C83.8345 139.207 83.9012 138.873 84.0345 138.56C84.1679 138.247 84.3479 137.973 84.5745 137.74C84.8079 137.507 85.0812 137.323 85.3945 137.19C85.7079 137.057 86.0412 136.99 86.3945 136.99C86.7479 136.99 87.0812 137.057 87.3945 137.19C87.7079 137.323 87.9812 137.507 88.2145 137.74C88.4479 137.973 88.6312 138.247 88.7645 138.56C88.8979 138.873 88.9645 139.207 88.9645 139.56C88.9645 139.913 88.8979 140.247 88.7645 140.56C88.6312 140.873 88.4479 141.147 88.2145 141.38C87.9812 141.607 87.7079 141.787 87.3945 141.92C87.0812 142.053 86.7479 142.12 86.3945 142.12C86.0412 142.12 85.7079 142.053 85.3945 141.92C85.0812 141.787 84.8079 141.607 84.5745 141.38C84.3479 141.147 84.1679 140.873 84.0345 140.56C83.9012 140.247 83.8345 139.913 83.8345 139.56ZM84.6445 139.56C84.6445 139.8 84.6912 140.027 84.7845 140.24C84.8779 140.453 85.0012 140.64 85.1545 140.8C85.3145 140.96 85.5012 141.087 85.7145 141.18C85.9279 141.273 86.1545 141.32 86.3945 141.32C86.6345 141.32 86.8612 141.273 87.0745 141.18C87.2879 141.087 87.4745 140.96 87.6345 140.8C87.7945 140.64 87.9212 140.453 88.0145 140.24C88.1079 140.027 88.1545 139.8 88.1545 139.56C88.1545 139.32 88.1079 139.093 88.0145 138.88C87.9212 138.667 87.7945 138.48 87.6345 138.32C87.4745 138.153 87.2879 138.023 87.0745 137.93C86.8612 137.837 86.6345 137.79 86.3945 137.79C86.1545 137.79 85.9279 137.837 85.7145 137.93C85.5012 138.023 85.3145 138.153 85.1545 138.32C85.0012 138.48 84.8779 138.667 84.7845 138.88C84.6912 139.093 84.6445 139.32 84.6445 139.56ZM91.118 137.31L91.168 137.68C91.2547 137.527 91.388 137.377 91.568 137.23C91.748 137.083 91.9914 137.01 92.298 137.01C92.4114 137.01 92.5214 137.027 92.628 137.06C92.7414 137.093 92.8414 137.133 92.928 137.18C93.0214 137.22 93.0947 137.263 93.148 137.31C93.208 137.357 93.238 137.397 93.238 137.43C93.238 137.443 93.2314 137.47 93.218 137.51L92.968 137.98C92.928 138.047 92.8847 138.08 92.838 138.08C92.8047 138.08 92.778 138.073 92.758 138.06C92.7447 138.047 92.7314 138.037 92.718 138.03C92.6514 137.99 92.568 137.957 92.468 137.93C92.368 137.897 92.2714 137.877 92.178 137.87C92.0314 137.87 91.8947 137.91 91.768 137.99C91.6414 138.07 91.5347 138.173 91.448 138.3C91.3614 138.42 91.2914 138.56 91.238 138.72C91.1914 138.873 91.168 139.027 91.168 139.18V141.78C91.168 141.927 91.0947 142 90.948 142H90.538C90.3847 142 90.308 141.927 90.308 141.78V137.31C90.308 137.243 90.328 137.19 90.368 137.15C90.4147 137.11 90.468 137.09 90.528 137.09H90.888C90.9614 137.09 91.0147 137.113 91.048 137.16C91.088 137.2 91.1114 137.25 91.118 137.31ZM94.9466 137.33L94.9766 137.78C95.0566 137.687 95.16 137.593 95.2866 137.5C95.4133 137.407 95.5533 137.323 95.7066 137.25C95.86 137.177 96.02 137.117 96.1866 137.07C96.3533 137.023 96.51 137 96.6566 137C96.9433 137 97.2033 137.057 97.4366 137.17C97.67 137.277 97.8666 137.423 98.0266 137.61C98.1933 137.797 98.32 138.017 98.4066 138.27C98.4933 138.523 98.5366 138.797 98.5366 139.09V141.75C98.5366 141.83 98.5133 141.893 98.4666 141.94C98.42 141.98 98.3633 142 98.2966 142H97.8866C97.7933 142 97.7333 141.98 97.7066 141.94C97.68 141.9 97.6666 141.84 97.6666 141.76V139.09C97.6666 138.923 97.6366 138.767 97.5766 138.62C97.5233 138.467 97.4433 138.337 97.3366 138.23C97.23 138.117 97.1 138.027 96.9466 137.96C96.8 137.893 96.63 137.86 96.4366 137.86C96.27 137.86 96.1 137.89 95.9266 137.95C95.7533 138.01 95.5966 138.09 95.4566 138.19C95.3166 138.29 95.2 138.403 95.1066 138.53C95.02 138.657 94.9766 138.787 94.9766 138.92V141.78C94.9766 141.927 94.9033 142 94.7566 142H94.3466C94.1933 142 94.1166 141.927 94.1166 141.78V137.33C94.1166 137.257 94.1366 137.203 94.1766 137.17C94.2233 137.13 94.2766 137.11 94.3366 137.11H94.7166C94.8566 137.11 94.9333 137.183 94.9466 137.33ZM100.885 137.31V141.78C100.885 141.927 100.812 142 100.665 142H100.245C100.098 142 100.025 141.927 100.025 141.78V137.31C100.025 137.163 100.098 137.09 100.245 137.09H100.665C100.812 137.09 100.885 137.163 100.885 137.31ZM99.8248 135.71C99.8248 135.537 99.8848 135.39 100.005 135.27C100.132 135.143 100.282 135.08 100.455 135.08C100.635 135.08 100.785 135.143 100.905 135.27C101.025 135.39 101.085 135.537 101.085 135.71C101.085 135.883 101.025 136.03 100.905 136.15C100.785 136.27 100.635 136.33 100.455 136.33C100.282 136.33 100.132 136.27 100.005 136.15C99.8848 136.03 99.8248 135.883 99.8248 135.71ZM103.335 137.33L103.365 137.78C103.445 137.687 103.549 137.593 103.675 137.5C103.802 137.407 103.942 137.323 104.095 137.25C104.249 137.177 104.409 137.117 104.575 137.07C104.742 137.023 104.899 137 105.045 137C105.332 137 105.592 137.057 105.825 137.17C106.059 137.277 106.255 137.423 106.415 137.61C106.582 137.797 106.709 138.017 106.795 138.27C106.882 138.523 106.925 138.797 106.925 139.09V141.75C106.925 141.83 106.902 141.893 106.855 141.94C106.809 141.98 106.752 142 106.685 142H106.275C106.182 142 106.122 141.98 106.095 141.94C106.069 141.9 106.055 141.84 106.055 141.76V139.09C106.055 138.923 106.025 138.767 105.965 138.62C105.912 138.467 105.832 138.337 105.725 138.23C105.619 138.117 105.489 138.027 105.335 137.96C105.189 137.893 105.019 137.86 104.825 137.86C104.659 137.86 104.489 137.89 104.315 137.95C104.142 138.01 103.985 138.09 103.845 138.19C103.705 138.29 103.589 138.403 103.495 138.53C103.409 138.657 103.365 138.787 103.365 138.92V141.78C103.365 141.927 103.292 142 103.145 142H102.735C102.582 142 102.505 141.927 102.505 141.78V137.33C102.505 137.257 102.525 137.203 102.565 137.17C102.612 137.13 102.665 137.11 102.725 137.11H103.105C103.245 137.11 103.322 137.183 103.335 137.33ZM111.824 141.86V141.26C111.744 141.36 111.65 141.463 111.544 141.57C111.437 141.67 111.317 141.76 111.184 141.84C111.057 141.92 110.92 141.983 110.774 142.03C110.634 142.083 110.487 142.11 110.334 142.11C109.994 142.11 109.68 142.043 109.394 141.91C109.107 141.777 108.86 141.597 108.654 141.37C108.454 141.137 108.294 140.867 108.174 140.56C108.06 140.247 108.004 139.913 108.004 139.56C108.004 139.207 108.064 138.873 108.184 138.56C108.304 138.247 108.467 137.977 108.674 137.75C108.887 137.517 109.134 137.333 109.414 137.2C109.7 137.067 110.007 137 110.334 137C110.674 137 110.967 137.077 111.214 137.23C111.467 137.377 111.67 137.557 111.824 137.77V137.36C111.824 137.287 111.844 137.227 111.884 137.18C111.924 137.133 111.994 137.11 112.094 137.11H112.414C112.487 137.11 112.554 137.133 112.614 137.18C112.674 137.22 112.704 137.28 112.704 137.36V141.53C112.704 141.95 112.64 142.317 112.514 142.63C112.394 142.95 112.224 143.213 112.004 143.42C111.79 143.633 111.534 143.79 111.234 143.89C110.94 143.997 110.624 144.05 110.284 144.05C110.004 144.05 109.75 144.017 109.524 143.95C109.304 143.89 109.097 143.797 108.904 143.67C108.824 143.623 108.784 143.58 108.784 143.54C108.784 143.527 108.79 143.507 108.804 143.48C108.817 143.453 108.827 143.437 108.834 143.43L109.114 142.95C109.147 142.91 109.194 142.89 109.254 142.89C109.287 142.89 109.324 142.903 109.364 142.93C109.49 143.017 109.634 143.087 109.794 143.14C109.96 143.193 110.12 143.22 110.274 143.22C110.46 143.22 110.644 143.187 110.824 143.12C111.01 143.06 111.177 142.97 111.324 142.85C111.47 142.737 111.59 142.597 111.684 142.43C111.777 142.263 111.824 142.073 111.824 141.86ZM108.854 139.56C108.854 139.8 108.89 140.023 108.964 140.23C109.044 140.437 109.15 140.617 109.284 140.77C109.424 140.923 109.584 141.047 109.764 141.14C109.944 141.227 110.134 141.27 110.334 141.27C110.527 141.27 110.714 141.227 110.894 141.14C111.074 141.053 111.23 140.933 111.364 140.78C111.504 140.627 111.614 140.45 111.694 140.25C111.78 140.043 111.824 139.823 111.824 139.59C111.824 139.357 111.784 139.137 111.704 138.93C111.63 138.717 111.524 138.53 111.384 138.37C111.25 138.21 111.094 138.083 110.914 137.99C110.734 137.897 110.54 137.85 110.334 137.85C110.134 137.85 109.944 137.897 109.764 137.99C109.584 138.077 109.424 138.2 109.284 138.36C109.15 138.513 109.044 138.693 108.964 138.9C108.89 139.107 108.854 139.327 108.854 139.56ZM118.365 141.15H121.975C122.035 141.15 122.085 141.17 122.125 141.21C122.172 141.25 122.195 141.307 122.195 141.38V141.78C122.195 141.84 122.175 141.893 122.135 141.94C122.095 141.98 122.042 142 121.975 142H117.725C117.579 142 117.505 141.927 117.505 141.78V134.8C117.505 134.74 117.525 134.69 117.565 134.65C117.605 134.603 117.662 134.58 117.735 134.58H118.145C118.292 134.58 118.365 134.653 118.365 134.8V141.15ZM124.108 137.31V141.78C124.108 141.927 124.034 142 123.888 142H123.468C123.321 142 123.248 141.927 123.248 141.78V137.31C123.248 137.163 123.321 137.09 123.468 137.09H123.888C124.034 137.09 124.108 137.163 124.108 137.31ZM123.048 135.71C123.048 135.537 123.108 135.39 123.228 135.27C123.354 135.143 123.504 135.08 123.678 135.08C123.858 135.08 124.008 135.143 124.128 135.27C124.248 135.39 124.308 135.537 124.308 135.71C124.308 135.883 124.248 136.03 124.128 136.15C124.008 136.27 123.858 136.33 123.678 136.33C123.504 136.33 123.354 136.27 123.228 136.15C123.108 136.03 123.048 135.883 123.048 135.71ZM129.138 141.86V141.26C129.058 141.36 128.965 141.463 128.858 141.57C128.751 141.67 128.631 141.76 128.498 141.84C128.371 141.92 128.235 141.983 128.088 142.03C127.948 142.083 127.801 142.11 127.648 142.11C127.308 142.11 126.995 142.043 126.708 141.91C126.421 141.777 126.175 141.597 125.968 141.37C125.768 141.137 125.608 140.867 125.488 140.56C125.375 140.247 125.318 139.913 125.318 139.56C125.318 139.207 125.378 138.873 125.498 138.56C125.618 138.247 125.781 137.977 125.988 137.75C126.201 137.517 126.448 137.333 126.728 137.2C127.015 137.067 127.321 137 127.648 137C127.988 137 128.281 137.077 128.528 137.23C128.781 137.377 128.985 137.557 129.138 137.77V137.36C129.138 137.287 129.158 137.227 129.198 137.18C129.238 137.133 129.308 137.11 129.408 137.11H129.728C129.801 137.11 129.868 137.133 129.928 137.18C129.988 137.22 130.018 137.28 130.018 137.36V141.53C130.018 141.95 129.955 142.317 129.828 142.63C129.708 142.95 129.538 143.213 129.318 143.42C129.105 143.633 128.848 143.79 128.548 143.89C128.255 143.997 127.938 144.05 127.598 144.05C127.318 144.05 127.065 144.017 126.838 143.95C126.618 143.89 126.411 143.797 126.218 143.67C126.138 143.623 126.098 143.58 126.098 143.54C126.098 143.527 126.105 143.507 126.118 143.48C126.131 143.453 126.141 143.437 126.148 143.43L126.428 142.95C126.461 142.91 126.508 142.89 126.568 142.89C126.601 142.89 126.638 142.903 126.678 142.93C126.805 143.017 126.948 143.087 127.108 143.14C127.275 143.193 127.435 143.22 127.588 143.22C127.775 143.22 127.958 143.187 128.138 143.12C128.325 143.06 128.491 142.97 128.638 142.85C128.785 142.737 128.905 142.597 128.998 142.43C129.091 142.263 129.138 142.073 129.138 141.86ZM126.168 139.56C126.168 139.8 126.205 140.023 126.278 140.23C126.358 140.437 126.465 140.617 126.598 140.77C126.738 140.923 126.898 141.047 127.078 141.14C127.258 141.227 127.448 141.27 127.648 141.27C127.841 141.27 128.028 141.227 128.208 141.14C128.388 141.053 128.545 140.933 128.678 140.78C128.818 140.627 128.928 140.45 129.008 140.25C129.095 140.043 129.138 139.823 129.138 139.59C129.138 139.357 129.098 139.137 129.018 138.93C128.945 138.717 128.838 138.53 128.698 138.37C128.565 138.21 128.408 138.083 128.228 137.99C128.048 137.897 127.855 137.85 127.648 137.85C127.448 137.85 127.258 137.897 127.078 137.99C126.898 138.077 126.738 138.2 126.598 138.36C126.465 138.513 126.358 138.693 126.278 138.9C126.205 139.107 126.168 139.327 126.168 139.56ZM132.545 134.8V137.78C132.625 137.687 132.728 137.593 132.855 137.5C132.982 137.407 133.122 137.323 133.275 137.25C133.428 137.177 133.588 137.117 133.755 137.07C133.922 137.023 134.078 137 134.225 137C134.512 137 134.772 137.057 135.005 137.17C135.238 137.277 135.435 137.423 135.595 137.61C135.762 137.797 135.888 138.017 135.975 138.27C136.062 138.523 136.105 138.797 136.105 139.09V141.75C136.105 141.83 136.082 141.893 136.035 141.94C135.988 141.98 135.932 142 135.865 142H135.455C135.362 142 135.302 141.98 135.275 141.94C135.248 141.9 135.235 141.84 135.235 141.76V139.09C135.235 138.923 135.212 138.767 135.165 138.62C135.125 138.467 135.058 138.337 134.965 138.23C134.872 138.117 134.748 138.027 134.595 137.96C134.448 137.893 134.268 137.86 134.055 137.86C133.895 137.86 133.728 137.89 133.555 137.95C133.382 138.01 133.222 138.093 133.075 138.2C132.935 138.307 132.815 138.433 132.715 138.58C132.615 138.72 132.558 138.873 132.545 139.04V141.78C132.545 141.927 132.472 142 132.325 142H131.915C131.762 142 131.685 141.927 131.685 141.78V134.8C131.685 134.653 131.758 134.58 131.905 134.58H132.315C132.382 134.58 132.435 134.6 132.475 134.64C132.522 134.68 132.545 134.733 132.545 134.8ZM139.293 142.08C139.267 142.08 139.24 142.08 139.213 142.08C139.193 142.087 139.167 142.09 139.133 142.09C138.973 142.09 138.817 142.077 138.663 142.05C138.517 142.03 138.387 141.98 138.273 141.9C138.16 141.813 138.067 141.69 137.993 141.53C137.927 141.37 137.893 141.157 137.893 140.89V137.89H137.293C137.213 137.89 137.15 137.877 137.103 137.85C137.063 137.817 137.043 137.757 137.043 137.67V137.3C137.043 137.213 137.063 137.157 137.103 137.13C137.15 137.103 137.213 137.09 137.293 137.09H137.893V135.68C137.893 135.573 137.95 135.507 138.063 135.48L138.573 135.41C138.653 135.41 138.703 135.437 138.723 135.49C138.75 135.543 138.763 135.603 138.763 135.67V137.09H139.503C139.65 137.09 139.723 137.167 139.723 137.32V137.65C139.723 137.81 139.65 137.89 139.503 137.89H138.763V140.57C138.763 140.737 138.77 140.867 138.783 140.96C138.803 141.053 138.833 141.123 138.873 141.17C138.92 141.217 138.977 141.247 139.043 141.26C139.11 141.267 139.193 141.27 139.293 141.27C139.46 141.27 139.543 141.353 139.543 141.52V141.84C139.543 141.987 139.46 142.067 139.293 142.08Z" fill="white"/>
<path d="M82.605 124.007H73.2242C72.7341 124.007 72.3841 123.939 72.1741 123.733C71.964 123.528 71.894 123.186 71.894 122.706V119.693H80.1548L81.1349 116.063H71.824V113.323C71.824 112.844 71.894 112.501 72.1041 112.296C72.3141 112.09 72.6641 112.022 73.1542 112.022H82.185L83.2351 108.187H69.7238C67.6937 108.187 66.6436 109.214 66.6436 111.2V124.829C66.6436 126.815 67.6937 127.843 69.7238 127.843H81.5549L82.605 124.007Z" fill="white"/>
<path d="M120.688 124.007H111.307C110.817 124.007 110.467 123.939 110.257 123.733C110.047 123.528 109.977 123.186 109.977 122.706V119.693H118.237L119.218 116.063H109.907V113.323C109.907 112.844 109.977 112.501 110.187 112.296C110.397 112.09 110.747 112.022 111.237 112.022H120.268L121.318 108.187H107.737C105.706 108.187 104.656 109.214 104.656 111.2V124.829C104.656 126.815 105.706 127.843 107.737 127.843H119.568L120.688 124.007Z" fill="white"/>
</svg>
