<svg width="88" height="74" viewBox="0 0 88 74" fill="none" xmlns="http://www.w3.org/2000/svg">
<circle opacity="0.3" cx="60" cy="14" r="60" fill="#010101"/>
<circle cx="70" cy="14" r="60" fill="#010101"/>
<path d="M47.4593 15.001C48.4185 14.3754 49.2977 13.828 50.097 13.2025C52.4949 11.5603 54.8929 11.6385 57.3707 13.2025C60.488 15.1574 63.2056 17.5815 65.6834 20.2402C68.3211 22.9771 70.7191 25.7922 72.5575 29.0765C72.9571 29.7021 73.1969 30.4841 73.4367 31.1878C73.7564 32.2826 73.117 33.1428 71.918 33.2992C70.9588 33.4556 69.9198 33.4556 68.8807 33.4556C68.2412 33.4556 68.0014 33.6901 68.0014 34.3157C68.0014 37.5218 68.0014 40.6497 68.0014 43.8558C68.0014 45.2633 67.4419 46.2017 66.3229 46.4363C65.2838 46.5927 64.1648 46.5927 63.0457 46.5145C62.8859 46.5145 62.4862 46.0453 62.5662 45.8107C62.5662 45.5761 62.8859 45.1851 63.2056 45.1069C63.6852 45.0287 64.1648 45.1069 64.6444 45.0288C66.163 45.0288 66.4028 44.7942 66.4028 43.3084C66.4028 40.3369 66.4028 37.3654 66.4028 34.4721C66.4028 32.5172 67.1222 31.8134 69.1204 31.8134C69.9997 31.8134 70.8789 31.8134 71.918 31.8134C71.7581 31.3442 71.7581 30.9532 71.5983 30.6405C70.4793 28.8419 69.3602 26.9652 68.0814 25.323C65.044 21.4914 61.607 17.9725 57.5306 15.1574C54.4133 13.0461 53.2942 12.9679 50.177 15.0792C48.978 15.9394 47.859 16.8777 46.66 17.8161C46.4202 18.0507 46.1005 18.2853 45.7808 18.5981C45.7808 17.2687 45.7808 16.174 45.7808 14.9228C44.5019 14.9228 43.303 14.8446 42.104 15.001C41.8642 15.001 41.5445 15.5484 41.4646 15.8612C41.3047 16.6431 41.2248 17.4251 41.1448 18.2071C41.0649 19.6928 40.985 21.1786 40.985 22.6643C40.985 23.3681 40.7452 23.8373 40.3455 24.3847C38.9867 26.2614 37.548 28.0599 36.349 30.0149C35.23 31.7352 35.3899 31.8916 37.3881 31.8916C38.0276 31.8916 38.7469 31.8916 39.3864 31.9698C40.5853 32.1262 41.1448 32.83 41.1448 34.0029C41.1448 37.209 41.1448 40.3369 41.1448 43.543C41.1448 44.7942 41.4646 45.1069 42.7434 45.1069C43.223 45.1069 43.7026 45.1069 44.1822 45.1069C44.7417 45.1069 45.0614 45.4197 44.9815 45.8889C44.9016 46.2017 44.5019 46.5927 44.1822 46.5927C43.303 46.6709 42.4237 46.6709 41.6244 46.5927C40.4255 46.5145 39.6262 45.6543 39.5462 44.325C39.4663 41.7445 39.5462 39.2422 39.5462 36.6616C39.5462 35.8797 39.5462 35.0977 39.5462 34.3157C39.5462 33.7683 39.3864 33.5338 38.7469 33.5338C37.7078 33.5338 36.7487 33.5337 35.7096 33.4556C34.3508 33.2992 33.6314 32.2826 34.1909 31.0314C34.9902 29.3893 36.1892 27.7472 37.1483 26.1832C37.3881 25.7922 37.548 25.5576 37.8677 25.1666C39.0667 23.7591 39.5462 22.1169 39.5462 20.3966C39.5462 18.6763 39.7061 17.1905 39.9459 15.5484C40.1857 13.9844 41.0649 13.3589 42.5836 13.3589C43.4628 13.3589 44.3421 13.3589 45.1414 13.3589C46.74 13.2025 46.9798 13.4371 47.4593 15.001Z" fill="white"/>
<path d="M58.3303 47.8442C58.4901 45.6547 58.5701 43.4652 58.7299 41.3538C58.8098 40.1809 58.65 39.1643 57.8507 38.3041C56.4119 36.8184 57.1313 34.1597 58.0905 33.1431C58.9697 32.2047 60.3285 32.2047 61.2078 33.1431C62.1669 34.2379 62.8863 36.8184 61.4475 38.3041C60.6482 39.1643 60.4884 40.1809 60.5683 41.3538C60.7282 43.8561 60.888 46.3585 61.0479 48.8608C61.1278 49.6427 60.5683 50.1901 59.769 50.1901C58.8898 50.1901 58.4102 49.7209 58.4102 48.8608C58.3303 48.4698 58.3303 48.157 58.3303 47.8442Z" fill="white"/>
<path d="M49.2177 41.2752C49.2177 43.5429 49.2177 45.8888 49.2177 48.1565C49.2177 48.5475 49.2976 49.0167 49.0578 49.3295C48.818 49.6423 48.3385 49.9551 47.9388 50.0333C47.4592 50.1115 46.8997 49.8769 46.8198 49.2513C46.7399 48.9385 46.7399 48.5475 46.7399 48.2347C46.8198 46.5144 46.8997 44.794 46.9797 43.1519C46.9797 42.5263 46.7399 42.0571 46.3402 41.588C45.9406 41.197 45.6208 40.6496 45.5409 40.1022C45.461 38.7728 45.461 37.4435 45.5409 36.1141C45.6208 34.863 46.1803 33.9246 47.0596 33.0644C47.4592 32.6734 47.8589 32.4389 48.4983 32.5953C49.1378 32.8298 49.2177 33.3772 49.2177 33.8464C49.2177 35.4886 49.2177 37.1307 49.2177 38.7728C49.2177 39.633 49.2177 40.4932 49.2177 41.2752Z" fill="white"/>
<path d="M52.6547 46.5924C52.5748 46.827 52.4949 47.0616 52.4949 47.2962C52.4949 48 52.5748 48.6256 52.415 49.3293C52.415 49.5639 52.0153 49.7985 51.8554 50.0331C51.6956 49.7985 51.3759 49.5639 51.3759 49.3293C51.2959 48 51.2959 46.6706 51.3759 45.3413C51.3759 44.9503 51.6956 44.4029 52.0153 44.1683C52.8146 43.5427 52.9745 42.6826 52.8945 41.7442C52.7347 39.1637 52.5748 36.5832 52.415 33.9245C52.335 32.9079 53.1343 32.2823 54.0935 32.5951C54.8129 32.7515 55.0527 33.2207 55.0527 33.9245C54.8928 36.2704 54.8129 38.6945 54.653 41.0404C54.653 41.5096 54.4931 42.057 54.5731 42.5262C54.653 42.9954 54.8129 43.5427 55.1326 43.7773C55.852 44.4029 56.0918 45.1067 56.0918 46.0451C56.0118 47.1398 56.0918 48.1564 56.0918 49.2511C56.0918 49.6421 56.0918 50.1113 55.5322 50.0331C55.2924 49.9549 54.9727 49.5639 54.9727 49.2511C54.8928 48.7038 54.9727 48.1564 54.8928 47.609C54.8928 47.2962 54.653 46.9834 54.5731 46.6706C54.4931 46.9834 54.3333 47.2962 54.2534 47.5308C54.1734 48.0782 54.3333 48.7038 54.1734 49.2511C54.0935 49.4857 53.8537 49.7203 53.6139 50.0331C53.4541 49.7985 53.0544 49.5639 53.0544 49.3293C52.9745 48.7038 53.0544 48 52.9745 47.2962C52.9745 47.0616 52.8146 46.827 52.8146 46.5924C52.8146 46.5924 52.7347 46.5924 52.6547 46.5924Z" fill="white"/>
<path d="M52.6548 19.9272H48.4185V24.0717H52.6548V19.9272Z" fill="white"/>
<path d="M58.2495 19.9272H54.0132V24.0717H58.2495V19.9272Z" fill="white"/>
<path d="M52.6548 25.0886H48.4185V29.2331H52.6548V25.0886Z" fill="white"/>
<path d="M58.2495 25.0886H54.0132V29.2331H58.2495V25.0886Z" fill="white"/>
</svg>
