<svg width="13" height="12" viewBox="0 0 13 12" fill="none" xmlns="http://www.w3.org/2000/svg">
<path d="M4.22916 0.942966C4.53055 0.746398 4.80682 0.574403 5.05797 0.377835C5.81144 -0.138156 6.5649 -0.113585 7.34348 0.377835C8.32299 0.992109 9.17692 1.75381 9.9555 2.58922C10.7843 3.44921 11.5378 4.33376 12.1154 5.36574C12.241 5.56231 12.3164 5.80802 12.3917 6.02916C12.4922 6.37315 12.2912 6.64343 11.9145 6.69257C11.6131 6.74171 11.2866 6.74171 10.9601 6.74171C10.7592 6.74171 10.6838 6.81543 10.6838 7.012C10.6838 8.01941 10.6838 9.00224 10.6838 10.0097C10.6838 10.4519 10.508 10.7468 10.1564 10.8205C9.82992 10.8696 9.4783 10.8696 9.12669 10.8451C9.07646 10.8451 8.95088 10.6976 8.97599 10.6239C8.97599 10.5502 9.07646 10.4274 9.17692 10.4028C9.32761 10.3782 9.4783 10.4028 9.629 10.3782C10.1062 10.3782 10.1815 10.3045 10.1815 9.83766C10.1815 8.90396 10.1815 7.97026 10.1815 7.06114C10.1815 6.44686 10.4076 6.22572 11.0355 6.22572C11.3117 6.22572 11.588 6.22572 11.9145 6.22572C11.8643 6.0783 11.8643 5.95544 11.814 5.85716C11.4624 5.29203 11.1108 4.70232 10.709 4.18633C9.75457 2.98236 8.67461 1.87666 7.39371 0.992109C6.41421 0.328693 6.06259 0.30412 5.08309 0.967536C4.70636 1.23782 4.35474 1.53267 3.97801 1.82752C3.90266 1.90123 3.8022 1.97495 3.70174 2.07323C3.70174 1.65552 3.70174 1.31153 3.70174 0.918395C3.29989 0.918395 2.92315 0.893824 2.54642 0.942966C2.47107 0.942966 2.37061 1.11496 2.3455 1.21325C2.29527 1.45896 2.27015 1.70467 2.24503 1.95038C2.21992 2.41722 2.1948 2.88407 2.1948 3.35092C2.1948 3.57206 2.11946 3.71948 1.99388 3.89148C1.56692 4.48118 1.11484 5.04632 0.738104 5.66059C0.386487 6.20115 0.436717 6.25029 1.06461 6.25029C1.26553 6.25029 1.49157 6.2503 1.69249 6.27487C2.06923 6.32401 2.24503 6.54515 2.24503 6.91371C2.24503 7.92112 2.24503 8.90396 2.24503 9.91137C2.24503 10.3045 2.3455 10.4028 2.74734 10.4028C2.89804 10.4028 3.04873 10.4028 3.19942 10.4028C3.37523 10.4028 3.47569 10.5011 3.45058 10.6485C3.42546 10.7468 3.29989 10.8696 3.19942 10.8696C2.92315 10.8942 2.64688 10.8942 2.39573 10.8696C2.019 10.8451 1.76784 10.5748 1.74272 10.1571C1.71761 9.34624 1.74272 8.55997 1.74272 7.74912C1.74272 7.50342 1.74272 7.25771 1.74272 7.012C1.74272 6.84 1.69249 6.76629 1.49157 6.76629C1.16507 6.76629 0.863681 6.76628 0.537179 6.74171C0.110216 6.69257 -0.115824 6.37315 0.0599846 5.98001C0.31114 5.46402 0.687873 4.94803 0.989259 4.45661C1.06461 4.33376 1.11484 4.26005 1.2153 4.13719C1.59203 3.69491 1.74272 3.17892 1.74272 2.63836C1.74272 2.0978 1.79296 1.63095 1.8683 1.11496C1.94365 0.623544 2.21992 0.426976 2.69711 0.426976C2.97338 0.426976 3.24966 0.426976 3.50081 0.426976C4.00312 0.377834 4.07847 0.451547 4.22916 0.942966Z" fill="white"/>
<path d="M7.64486 11.2628C7.69509 10.5749 7.7202 9.88687 7.77043 9.22346C7.79555 8.85489 7.74532 8.53547 7.49416 8.26519C7.04208 7.79834 7.26812 6.96293 7.56951 6.6435C7.84578 6.34865 8.27274 6.34865 8.54902 6.6435C8.8504 6.9875 9.07644 7.79834 8.62436 8.26519C8.37321 8.53547 8.32298 8.85489 8.34809 9.22346C8.39832 10.0097 8.44855 10.796 8.49878 11.5823C8.5239 11.828 8.34809 12 8.09694 12C7.82067 12 7.66997 11.8525 7.66997 11.5823C7.64486 11.4594 7.64486 11.3611 7.64486 11.2628Z" fill="white"/>
<path d="M4.78157 9.19883C4.78157 9.91139 4.78157 10.6485 4.78157 11.3611C4.78157 11.4839 4.80669 11.6314 4.73134 11.7296C4.656 11.8279 4.5053 11.9262 4.37972 11.9508C4.22903 11.9754 4.05322 11.9016 4.02811 11.7051C4.00299 11.6068 4.00299 11.4839 4.00299 11.3857C4.02811 10.8451 4.05322 10.3045 4.07834 9.78853C4.07834 9.59197 4.00299 9.44454 3.87741 9.29711C3.75184 9.17426 3.65137 9.00226 3.62626 8.83026C3.60114 8.41256 3.60114 7.99485 3.62626 7.57714C3.65137 7.18401 3.82718 6.88915 4.10345 6.61887C4.22903 6.49602 4.35461 6.42231 4.55553 6.47145C4.75646 6.54516 4.78157 6.71716 4.78157 6.86458C4.78157 7.38057 4.78157 7.89657 4.78157 8.41256C4.78157 8.68284 4.78157 8.95312 4.78157 9.19883Z" fill="white"/>
<path d="M5.8616 10.8694C5.83649 10.9432 5.81137 11.0169 5.81137 11.0906C5.81137 11.3117 5.83649 11.5083 5.78626 11.7294C5.78626 11.8031 5.66068 11.8769 5.61045 11.9506C5.56022 11.8769 5.45975 11.8031 5.45975 11.7294C5.43464 11.3117 5.43464 10.894 5.45975 10.4763C5.45975 10.3535 5.56022 10.1815 5.66068 10.1077C5.91183 9.91118 5.96206 9.64089 5.93695 9.34604C5.88672 8.5352 5.83649 7.72436 5.78626 6.88894C5.76114 6.56952 6.0123 6.37295 6.31368 6.47123C6.53972 6.52037 6.61507 6.6678 6.61507 6.88894C6.56484 7.62607 6.53972 8.38777 6.48949 9.1249C6.48949 9.27233 6.43926 9.44433 6.46438 9.59175C6.48949 9.73918 6.53972 9.91118 6.64018 9.98489C6.86622 10.1815 6.94157 10.4026 6.94157 10.6974C6.91645 11.0414 6.94157 11.3609 6.94157 11.7049C6.94157 11.8277 6.94157 11.9751 6.76576 11.9506C6.69041 11.926 6.58995 11.8031 6.58995 11.7049C6.56484 11.5329 6.58995 11.3609 6.56484 11.1889C6.56484 11.0906 6.48949 10.9923 6.46438 10.894C6.43926 10.9923 6.38903 11.0906 6.36391 11.1643C6.3388 11.3363 6.38903 11.5329 6.3388 11.7049C6.31368 11.7786 6.23834 11.8523 6.16299 11.9506C6.11276 11.8769 5.98718 11.8031 5.98718 11.7294C5.96206 11.5329 5.98718 11.3117 5.96207 11.0906C5.96207 11.0169 5.91183 10.9432 5.91183 10.8694C5.91183 10.8694 5.88672 10.8694 5.8616 10.8694Z" fill="white"/>
<path d="M5.86164 2.49072H4.53052V3.79298H5.86164V2.49072Z" fill="white"/>
<path d="M7.6197 2.49072H6.28857V3.79298H7.6197V2.49072Z" fill="white"/>
<path d="M5.86164 4.11279H4.53052V5.41506H5.86164V4.11279Z" fill="white"/>
<path d="M7.6197 4.11279H6.28857V5.41506H7.6197V4.11279Z" fill="white"/>
</svg>
