<svg width="252" height="59" viewBox="0 0 252 59" fill="none" xmlns="http://www.w3.org/2000/svg">
<mask id="mask0_80_2432" style="mask-type:luminance" maskUnits="userSpaceOnUse" x="70" y="4" width="12" height="35">
<path d="M81.7464 4.99756H70.9785V38.2196H81.7464V4.99756Z" fill="white"/>
</mask>
<g mask="url(#mask0_80_2432)">
<path d="M105.1 27.3498L98.1267 16.4487L61.7512 38.4621L68.7244 49.3631L105.1 27.3498Z" fill="#FFDD00"/>
<path d="M98.0645 16.3634L91.0913 5.4624L54.7158 27.4758L61.689 38.3768L98.0645 16.3634Z" fill="#ED1C24"/>
<path d="M91.0922 5.47428L84.119 -5.42676L47.7435 16.5866L54.7167 27.4876L91.0922 5.47428Z" fill="white"/>
</g>
<path d="M107.914 38.3316H97.3776L85.3361 25.8312C84.294 24.705 83.7151 23.3536 83.7151 21.6643C83.7151 20.3129 84.1782 19.0741 85.1045 18.0606L95.8724 5.89795H106.177L93.2094 19.1868C92.3989 19.9751 91.9358 20.7634 91.9358 21.5517C91.9358 22.34 92.5147 23.241 93.5567 24.3671L107.914 38.3316Z" fill="white"/>
<path d="M118.103 38.3316H109.535V5.89795H118.103V38.3316Z" fill="white"/>
<path d="M183.752 38.3316H160.827C157.469 38.3316 155.733 36.6424 155.733 33.3765V5.89795H164.301V29.6601C164.301 30.4485 164.416 31.0115 164.764 31.3494C165.111 31.6872 165.69 31.7999 166.501 31.7999H183.637V38.3316H183.752Z" fill="white"/>
<path d="M218.719 38.3316V10.8531C218.719 7.47459 220.456 5.89795 223.814 5.89795H241.644C245.002 5.89795 247.202 6.79889 248.591 8.48814C249.865 10.29 250.56 12.8802 250.56 16.4839C250.56 23.9167 248.012 27.633 243.034 27.633H240.602V27.8583L251.254 38.219H240.718L233.192 29.7728C233.076 29.6601 232.845 29.3223 232.382 28.9844C232.034 28.6466 231.687 28.3087 231.571 28.0835C231.34 27.8583 231.108 27.633 230.876 27.2952C230.645 26.9573 230.413 26.6195 230.298 26.2816C230.182 25.9438 230.182 25.6059 230.182 25.2681V24.4798C230.182 23.3536 230.529 22.5653 231.34 22.2274C232.15 21.7769 233.424 21.5517 235.045 21.5517H237.823C239.329 21.5517 240.371 21.2139 240.95 20.4255C241.529 19.6372 241.76 18.3984 241.76 16.7092C241.76 15.0199 241.413 13.8938 240.834 13.2181C240.255 12.5424 239.097 12.2045 237.476 12.2045H229.487C228.677 12.2045 228.098 12.3171 227.75 12.655C227.403 12.9928 227.287 13.5559 227.287 14.3442V38.1064H218.719V38.3316Z" fill="white"/>
<path d="M88.0525 44.4021V54.8721C88.0525 55.0921 87.9425 55.2021 87.7225 55.2021H87.0925C86.8725 55.2021 86.7625 55.0921 86.7625 54.8721V44.4021C86.7625 44.1821 86.8725 44.0721 87.0925 44.0721H87.7225C87.9425 44.0721 88.0525 44.1821 88.0525 44.4021ZM91.7282 48.1971L91.7732 48.8721C91.8932 48.7321 92.0482 48.5921 92.2382 48.4521C92.4282 48.3121 92.6382 48.1871 92.8682 48.0771C93.0982 47.9671 93.3382 47.8771 93.5882 47.8071C93.8382 47.7371 94.0732 47.7021 94.2932 47.7021C94.7232 47.7021 95.1132 47.7871 95.4632 47.9571C95.8132 48.1171 96.1082 48.3371 96.3482 48.6171C96.5982 48.8971 96.7882 49.2271 96.9182 49.6071C97.0482 49.9871 97.1132 50.3971 97.1132 50.8371V54.8271C97.1132 54.9471 97.0782 55.0421 97.0082 55.1121C96.9382 55.1721 96.8532 55.2021 96.7532 55.2021H96.1382C95.9982 55.2021 95.9082 55.1721 95.8682 55.1121C95.8282 55.0521 95.8082 54.9621 95.8082 54.8421V50.8371C95.8082 50.5871 95.7632 50.3521 95.6732 50.1321C95.5932 49.9021 95.4732 49.7071 95.3132 49.5471C95.1532 49.3771 94.9582 49.2421 94.7282 49.1421C94.5082 49.0421 94.2532 48.9921 93.9632 48.9921C93.7132 48.9921 93.4582 49.0371 93.1982 49.1271C92.9382 49.2171 92.7032 49.3371 92.4932 49.4871C92.2832 49.6371 92.1082 49.8071 91.9682 49.9971C91.8382 50.1871 91.7732 50.3821 91.7732 50.5821V54.8721C91.7732 55.0921 91.6632 55.2021 91.4432 55.2021H90.8282C90.5982 55.2021 90.4832 55.0921 90.4832 54.8721V48.1971C90.4832 48.0871 90.5132 48.0071 90.5732 47.9571C90.6432 47.8971 90.7232 47.8671 90.8132 47.8671H91.3832C91.5932 47.8671 91.7082 47.9771 91.7282 48.1971ZM103.493 44.0721H111.203C111.293 44.0721 111.373 44.1021 111.443 44.1621C111.513 44.2121 111.553 44.2921 111.563 44.4021V45.0171C111.563 45.1171 111.533 45.2021 111.473 45.2721C111.413 45.3421 111.323 45.3771 111.203 45.3771H108.008V54.8721C108.008 54.9621 107.978 55.0421 107.918 55.1121C107.858 55.1721 107.773 55.2021 107.663 55.2021H107.048C106.948 55.2021 106.863 55.1721 106.793 55.1121C106.733 55.0521 106.703 54.9721 106.703 54.8721V45.3771H103.493C103.263 45.3771 103.148 45.2571 103.148 45.0171V44.4021C103.148 44.1821 103.263 44.0721 103.493 44.0721ZM114.508 44.4021V48.8721C114.628 48.7321 114.783 48.5921 114.973 48.4521C115.163 48.3121 115.373 48.1871 115.603 48.0771C115.833 47.9671 116.073 47.8771 116.323 47.8071C116.573 47.7371 116.808 47.7021 117.028 47.7021C117.458 47.7021 117.848 47.7871 118.198 47.9571C118.548 48.1171 118.843 48.3371 119.083 48.6171C119.333 48.8971 119.523 49.2271 119.653 49.6071C119.783 49.9871 119.848 50.3971 119.848 50.8371V54.8271C119.848 54.9471 119.813 55.0421 119.743 55.1121C119.673 55.1721 119.588 55.2021 119.488 55.2021H118.873C118.733 55.2021 118.643 55.1721 118.603 55.1121C118.563 55.0521 118.543 54.9621 118.543 54.8421V50.8371C118.543 50.5871 118.508 50.3521 118.438 50.1321C118.378 49.9021 118.278 49.7071 118.138 49.5471C117.998 49.3771 117.813 49.2421 117.583 49.1421C117.363 49.0421 117.093 48.9921 116.773 48.9921C116.533 48.9921 116.283 49.0371 116.023 49.1271C115.763 49.2171 115.523 49.3421 115.303 49.5021C115.093 49.6621 114.913 49.8521 114.763 50.0721C114.613 50.2821 114.528 50.5121 114.508 50.7621V54.8721C114.508 55.0921 114.398 55.2021 114.178 55.2021H113.563C113.333 55.2021 113.218 55.0921 113.218 54.8721V44.4021C113.218 44.1821 113.328 44.0721 113.548 44.0721H114.163C114.263 44.0721 114.343 44.1021 114.403 44.1621C114.473 44.2221 114.508 44.3021 114.508 44.4021ZM125.065 55.3821C124.575 55.3821 124.115 55.2821 123.685 55.0821C123.255 54.8821 122.88 54.6121 122.56 54.2721C122.24 53.9221 121.985 53.5121 121.795 53.0421C121.615 52.5721 121.525 52.0721 121.525 51.5421C121.525 51.0121 121.615 50.5121 121.795 50.0421C121.985 49.5721 122.24 49.1621 122.56 48.8121C122.88 48.4621 123.255 48.1871 123.685 47.9871C124.115 47.7871 124.575 47.6871 125.065 47.6871C125.525 47.6871 125.955 47.7821 126.355 47.9721C126.765 48.1521 127.12 48.4021 127.42 48.7221C127.73 49.0421 127.975 49.4171 128.155 49.8471C128.335 50.2771 128.425 50.7371 128.425 51.2271V51.4071C128.425 51.7071 128.33 51.8971 128.14 51.9771C127.95 52.0571 127.72 52.0971 127.45 52.0971H122.845C122.935 52.6971 123.185 53.1871 123.595 53.5671C124.015 53.9371 124.505 54.1221 125.065 54.1221C125.365 54.1221 125.665 54.0671 125.965 53.9571C126.275 53.8471 126.55 53.6921 126.79 53.4921C126.86 53.4221 126.95 53.3871 127.06 53.3871C127.13 53.3871 127.185 53.4171 127.225 53.4771L127.645 54.1071C127.685 54.1471 127.705 54.1921 127.705 54.2421C127.695 54.3121 127.66 54.3721 127.6 54.4221C127.55 54.4721 127.5 54.5121 127.45 54.5421C127.11 54.7721 126.745 54.9721 126.355 55.1421C125.965 55.3021 125.535 55.3821 125.065 55.3821ZM122.905 50.9871H127.15C127.1 50.7071 127.01 50.4421 126.88 50.1921C126.75 49.9421 126.59 49.7271 126.4 49.5471C126.21 49.3571 125.995 49.2121 125.755 49.1121C125.525 49.0021 125.285 48.9471 125.035 48.9471C124.775 48.9471 124.53 49.0021 124.3 49.1121C124.07 49.2121 123.86 49.3571 123.67 49.5471C123.49 49.7271 123.33 49.9421 123.19 50.1921C123.06 50.4421 122.965 50.7071 122.905 50.9871ZM140.795 54.7221H140.21C140.09 54.7221 139.99 54.6321 139.91 54.4521L136.46 46.3371L135.635 54.8721C135.635 55.0921 135.52 55.2021 135.29 55.2021H134.66C134.44 55.2021 134.33 55.0921 134.33 54.8721C134.51 53.1121 134.69 51.3671 134.87 49.6371C135.05 47.9071 135.23 46.1621 135.41 44.4021C135.41 44.3021 135.445 44.2221 135.515 44.1621C135.585 44.1021 135.67 44.0721 135.77 44.0721H136.7C136.86 44.0721 136.97 44.1671 137.03 44.3571L140.51 52.7271C141.09 51.3271 141.67 49.9321 142.25 48.5421C142.83 47.1521 143.41 45.7571 143.99 44.3571C144.04 44.1671 144.145 44.0721 144.305 44.0721H145.28C145.38 44.0721 145.46 44.1071 145.52 44.1771C145.58 44.2371 145.61 44.3121 145.61 44.4021L146.705 54.8721C146.705 55.0921 146.59 55.2021 146.36 55.2021H145.73C145.51 55.2021 145.4 55.0921 145.4 54.8721L144.56 46.3371L141.11 54.4521C141.04 54.6321 140.935 54.7221 140.795 54.7221ZM148.097 51.5421C148.097 51.0121 148.197 50.5121 148.397 50.0421C148.597 49.5721 148.867 49.1621 149.207 48.8121C149.557 48.4621 149.967 48.1871 150.437 47.9871C150.907 47.7871 151.407 47.6871 151.937 47.6871C152.467 47.6871 152.967 47.7871 153.437 47.9871C153.907 48.1871 154.317 48.4621 154.667 48.8121C155.017 49.1621 155.292 49.5721 155.492 50.0421C155.692 50.5121 155.792 51.0121 155.792 51.5421C155.792 52.0721 155.692 52.5721 155.492 53.0421C155.292 53.5121 155.017 53.9221 154.667 54.2721C154.317 54.6121 153.907 54.8821 153.437 55.0821C152.967 55.2821 152.467 55.3821 151.937 55.3821C151.407 55.3821 150.907 55.2821 150.437 55.0821C149.967 54.8821 149.557 54.6121 149.207 54.2721C148.867 53.9221 148.597 53.5121 148.397 53.0421C148.197 52.5721 148.097 52.0721 148.097 51.5421ZM149.312 51.5421C149.312 51.9021 149.382 52.2421 149.522 52.5621C149.662 52.8821 149.847 53.1621 150.077 53.4021C150.317 53.6421 150.597 53.8321 150.917 53.9721C151.237 54.1121 151.577 54.1821 151.937 54.1821C152.297 54.1821 152.637 54.1121 152.957 53.9721C153.277 53.8321 153.557 53.6421 153.797 53.4021C154.037 53.1621 154.227 52.8821 154.367 52.5621C154.507 52.2421 154.577 51.9021 154.577 51.5421C154.577 51.1821 154.507 50.8421 154.367 50.5221C154.227 50.2021 154.037 49.9221 153.797 49.6821C153.557 49.4321 153.277 49.2371 152.957 49.0971C152.637 48.9571 152.297 48.8871 151.937 48.8871C151.577 48.8871 151.237 48.9571 150.917 49.0971C150.597 49.2371 150.317 49.4321 150.077 49.6821C149.847 49.9221 149.662 50.2021 149.522 50.5221C149.382 50.8421 149.312 51.1821 149.312 51.5421ZM159.022 48.1671L159.097 48.7221C159.227 48.4921 159.427 48.2671 159.697 48.0471C159.967 47.8271 160.332 47.7171 160.792 47.7171C160.962 47.7171 161.127 47.7421 161.287 47.7921C161.457 47.8421 161.607 47.9021 161.737 47.9721C161.877 48.0321 161.987 48.0971 162.067 48.1671C162.157 48.2371 162.202 48.2971 162.202 48.3471C162.202 48.3671 162.192 48.4071 162.172 48.4671L161.797 49.1721C161.737 49.2721 161.672 49.3221 161.602 49.3221C161.552 49.3221 161.512 49.3121 161.482 49.2921C161.462 49.2721 161.442 49.2571 161.422 49.2471C161.322 49.1871 161.197 49.1371 161.047 49.0971C160.897 49.0471 160.752 49.0171 160.612 49.0071C160.392 49.0071 160.187 49.0671 159.997 49.1871C159.807 49.3071 159.647 49.4621 159.517 49.6521C159.387 49.8321 159.282 50.0421 159.202 50.2821C159.132 50.5121 159.097 50.7421 159.097 50.9721V54.8721C159.097 55.0921 158.987 55.2021 158.767 55.2021H158.152C157.922 55.2021 157.807 55.0921 157.807 54.8721V48.1671C157.807 48.0671 157.837 47.9871 157.897 47.9271C157.967 47.8671 158.047 47.8371 158.137 47.8371H158.677C158.787 47.8371 158.867 47.8721 158.917 47.9421C158.977 48.0021 159.012 48.0771 159.022 48.1671ZM164.765 48.1971L164.81 48.8721C164.93 48.7321 165.085 48.5921 165.275 48.4521C165.465 48.3121 165.675 48.1871 165.905 48.0771C166.135 47.9671 166.375 47.8771 166.625 47.8071C166.875 47.7371 167.11 47.7021 167.33 47.7021C167.76 47.7021 168.15 47.7871 168.5 47.9571C168.85 48.1171 169.145 48.3371 169.385 48.6171C169.635 48.8971 169.825 49.2271 169.955 49.6071C170.085 49.9871 170.15 50.3971 170.15 50.8371V54.8271C170.15 54.9471 170.115 55.0421 170.045 55.1121C169.975 55.1721 169.89 55.2021 169.79 55.2021H169.175C169.035 55.2021 168.945 55.1721 168.905 55.1121C168.865 55.0521 168.845 54.9621 168.845 54.8421V50.8371C168.845 50.5871 168.8 50.3521 168.71 50.1321C168.63 49.9021 168.51 49.7071 168.35 49.5471C168.19 49.3771 167.995 49.2421 167.765 49.1421C167.545 49.0421 167.29 48.9921 167 48.9921C166.75 48.9921 166.495 49.0371 166.235 49.1271C165.975 49.2171 165.74 49.3371 165.53 49.4871C165.32 49.6371 165.145 49.8071 165.005 49.9971C164.875 50.1871 164.81 50.3821 164.81 50.5821V54.8721C164.81 55.0921 164.7 55.2021 164.48 55.2021H163.865C163.635 55.2021 163.52 55.0921 163.52 54.8721V48.1971C163.52 48.0871 163.55 48.0071 163.61 47.9571C163.68 47.8971 163.76 47.8671 163.85 47.8671H164.42C164.63 47.8671 164.745 47.9771 164.765 48.1971ZM173.673 48.1671V54.8721C173.673 55.0921 173.563 55.2021 173.343 55.2021H172.713C172.493 55.2021 172.383 55.0921 172.383 54.8721V48.1671C172.383 47.9471 172.493 47.8371 172.713 47.8371H173.343C173.563 47.8371 173.673 47.9471 173.673 48.1671ZM172.083 45.7671C172.083 45.5071 172.173 45.2871 172.353 45.1071C172.543 44.9171 172.768 44.8221 173.028 44.8221C173.298 44.8221 173.523 44.9171 173.703 45.1071C173.883 45.2871 173.973 45.5071 173.973 45.7671C173.973 46.0271 173.883 46.2471 173.703 46.4271C173.523 46.6071 173.298 46.6971 173.028 46.6971C172.768 46.6971 172.543 46.6071 172.353 46.4271C172.173 46.2471 172.083 46.0271 172.083 45.7671ZM177.348 48.1971L177.393 48.8721C177.513 48.7321 177.668 48.5921 177.858 48.4521C178.048 48.3121 178.258 48.1871 178.488 48.0771C178.718 47.9671 178.958 47.8771 179.208 47.8071C179.458 47.7371 179.693 47.7021 179.913 47.7021C180.343 47.7021 180.733 47.7871 181.083 47.9571C181.433 48.1171 181.728 48.3371 181.968 48.6171C182.218 48.8971 182.408 49.2271 182.538 49.6071C182.668 49.9871 182.733 50.3971 182.733 50.8371V54.8271C182.733 54.9471 182.698 55.0421 182.628 55.1121C182.558 55.1721 182.473 55.2021 182.373 55.2021H181.758C181.618 55.2021 181.528 55.1721 181.488 55.1121C181.448 55.0521 181.428 54.9621 181.428 54.8421V50.8371C181.428 50.5871 181.383 50.3521 181.293 50.1321C181.213 49.9021 181.093 49.7071 180.933 49.5471C180.773 49.3771 180.578 49.2421 180.348 49.1421C180.128 49.0421 179.873 48.9921 179.583 48.9921C179.333 48.9921 179.078 49.0371 178.818 49.1271C178.558 49.2171 178.323 49.3371 178.113 49.4871C177.903 49.6371 177.728 49.8071 177.588 49.9971C177.458 50.1871 177.393 50.3821 177.393 50.5821V54.8721C177.393 55.0921 177.283 55.2021 177.063 55.2021H176.448C176.218 55.2021 176.103 55.0921 176.103 54.8721V48.1971C176.103 48.0871 176.133 48.0071 176.193 47.9571C176.263 47.8971 176.343 47.8671 176.433 47.8671H177.003C177.213 47.8671 177.328 47.9771 177.348 48.1971ZM190.081 54.9921V54.0921C189.961 54.2421 189.821 54.3971 189.661 54.5571C189.501 54.7071 189.321 54.8421 189.121 54.9621C188.931 55.0821 188.726 55.1771 188.506 55.2471C188.296 55.3271 188.076 55.3671 187.846 55.3671C187.336 55.3671 186.866 55.2671 186.436 55.0671C186.006 54.8671 185.636 54.5971 185.326 54.2571C185.026 53.9071 184.786 53.5021 184.606 53.0421C184.436 52.5721 184.351 52.0721 184.351 51.5421C184.351 51.0121 184.441 50.5121 184.621 50.0421C184.801 49.5721 185.046 49.1671 185.356 48.8271C185.676 48.4771 186.046 48.2021 186.466 48.0021C186.896 47.8021 187.356 47.7021 187.846 47.7021C188.356 47.7021 188.796 47.8171 189.166 48.0471C189.546 48.2671 189.851 48.5371 190.081 48.8571V48.2421C190.081 48.1321 190.111 48.0421 190.171 47.9721C190.231 47.9021 190.336 47.8671 190.486 47.8671H190.966C191.076 47.8671 191.176 47.9021 191.266 47.9721C191.356 48.0321 191.401 48.1221 191.401 48.2421V54.4971C191.401 55.1271 191.306 55.6771 191.116 56.1471C190.936 56.6271 190.681 57.0221 190.351 57.3321C190.031 57.6521 189.646 57.8871 189.196 58.0371C188.756 58.1971 188.281 58.2771 187.771 58.2771C187.351 58.2771 186.971 58.2271 186.631 58.1271C186.301 58.0371 185.991 57.8971 185.701 57.7071C185.581 57.6371 185.521 57.5721 185.521 57.5121C185.521 57.4921 185.531 57.4621 185.551 57.4221C185.571 57.3821 185.586 57.3571 185.596 57.3471L186.016 56.6271C186.066 56.5671 186.136 56.5371 186.226 56.5371C186.276 56.5371 186.331 56.5571 186.391 56.5971C186.581 56.7271 186.796 56.8321 187.036 56.9121C187.286 56.9921 187.526 57.0321 187.756 57.0321C188.036 57.0321 188.311 56.9821 188.581 56.8821C188.861 56.7921 189.111 56.6571 189.331 56.4771C189.551 56.3071 189.731 56.0971 189.871 55.8471C190.011 55.5971 190.081 55.3121 190.081 54.9921ZM185.626 51.5421C185.626 51.9021 185.681 52.2371 185.791 52.5471C185.911 52.8571 186.071 53.1271 186.271 53.3571C186.481 53.5871 186.721 53.7721 186.991 53.9121C187.261 54.0421 187.546 54.1071 187.846 54.1071C188.136 54.1071 188.416 54.0421 188.686 53.9121C188.956 53.7821 189.191 53.6021 189.391 53.3721C189.601 53.1421 189.766 52.8771 189.886 52.5771C190.016 52.2671 190.081 51.9371 190.081 51.5871C190.081 51.2371 190.021 50.9071 189.901 50.5971C189.791 50.2771 189.631 49.9971 189.421 49.7571C189.221 49.5171 188.986 49.3271 188.716 49.1871C188.446 49.0471 188.156 48.9771 187.846 48.9771C187.546 48.9771 187.261 49.0471 186.991 49.1871C186.721 49.3171 186.481 49.5021 186.271 49.7421C186.071 49.9721 185.911 50.2421 185.791 50.5521C185.681 50.8621 185.626 51.1921 185.626 51.5421ZM199.893 53.9271H205.308C205.398 53.9271 205.473 53.9571 205.533 54.0171C205.603 54.0771 205.638 54.1621 205.638 54.2721V54.8721C205.638 54.9621 205.608 55.0421 205.548 55.1121C205.488 55.1721 205.408 55.2021 205.308 55.2021H198.933C198.713 55.2021 198.603 55.0921 198.603 54.8721V44.4021C198.603 44.3121 198.633 44.2371 198.693 44.1771C198.753 44.1071 198.838 44.0721 198.948 44.0721H199.563C199.783 44.0721 199.893 44.1821 199.893 44.4021V53.9271ZM208.507 48.1671V54.8721C208.507 55.0921 208.397 55.2021 208.177 55.2021H207.547C207.327 55.2021 207.217 55.0921 207.217 54.8721V48.1671C207.217 47.9471 207.327 47.8371 207.547 47.8371H208.177C208.397 47.8371 208.507 47.9471 208.507 48.1671ZM206.917 45.7671C206.917 45.5071 207.007 45.2871 207.187 45.1071C207.377 44.9171 207.602 44.8221 207.862 44.8221C208.132 44.8221 208.357 44.9171 208.537 45.1071C208.717 45.2871 208.807 45.5071 208.807 45.7671C208.807 46.0271 208.717 46.2471 208.537 46.4271C208.357 46.6071 208.132 46.6971 207.862 46.6971C207.602 46.6971 207.377 46.6071 207.187 46.4271C207.007 46.2471 206.917 46.0271 206.917 45.7671ZM216.052 54.9921V54.0921C215.932 54.2421 215.792 54.3971 215.632 54.5571C215.472 54.7071 215.292 54.8421 215.092 54.9621C214.902 55.0821 214.697 55.1771 214.477 55.2471C214.267 55.3271 214.047 55.3671 213.817 55.3671C213.307 55.3671 212.837 55.2671 212.407 55.0671C211.977 54.8671 211.607 54.5971 211.297 54.2571C210.997 53.9071 210.757 53.5021 210.577 53.0421C210.407 52.5721 210.322 52.0721 210.322 51.5421C210.322 51.0121 210.412 50.5121 210.592 50.0421C210.772 49.5721 211.017 49.1671 211.327 48.8271C211.647 48.4771 212.017 48.2021 212.437 48.0021C212.867 47.8021 213.327 47.7021 213.817 47.7021C214.327 47.7021 214.767 47.8171 215.137 48.0471C215.517 48.2671 215.822 48.5371 216.052 48.8571V48.2421C216.052 48.1321 216.082 48.0421 216.142 47.9721C216.202 47.9021 216.307 47.8671 216.457 47.8671H216.937C217.047 47.8671 217.147 47.9021 217.237 47.9721C217.327 48.0321 217.372 48.1221 217.372 48.2421V54.4971C217.372 55.1271 217.277 55.6771 217.087 56.1471C216.907 56.6271 216.652 57.0221 216.322 57.3321C216.002 57.6521 215.617 57.8871 215.167 58.0371C214.727 58.1971 214.252 58.2771 213.742 58.2771C213.322 58.2771 212.942 58.2271 212.602 58.1271C212.272 58.0371 211.962 57.8971 211.672 57.7071C211.552 57.6371 211.492 57.5721 211.492 57.5121C211.492 57.4921 211.502 57.4621 211.522 57.4221C211.542 57.3821 211.557 57.3571 211.567 57.3471L211.987 56.6271C212.037 56.5671 212.107 56.5371 212.197 56.5371C212.247 56.5371 212.302 56.5571 212.362 56.5971C212.552 56.7271 212.767 56.8321 213.007 56.9121C213.257 56.9921 213.497 57.0321 213.727 57.0321C214.007 57.0321 214.282 56.9821 214.552 56.8821C214.832 56.7921 215.082 56.6571 215.302 56.4771C215.522 56.3071 215.702 56.0971 215.842 55.8471C215.982 55.5971 216.052 55.3121 216.052 54.9921ZM211.597 51.5421C211.597 51.9021 211.652 52.2371 211.762 52.5471C211.882 52.8571 212.042 53.1271 212.242 53.3571C212.452 53.5871 212.692 53.7721 212.962 53.9121C213.232 54.0421 213.517 54.1071 213.817 54.1071C214.107 54.1071 214.387 54.0421 214.657 53.9121C214.927 53.7821 215.162 53.6021 215.362 53.3721C215.572 53.1421 215.737 52.8771 215.857 52.5771C215.987 52.2671 216.052 51.9371 216.052 51.5871C216.052 51.2371 215.992 50.9071 215.872 50.5971C215.762 50.2771 215.602 49.9971 215.392 49.7571C215.192 49.5171 214.957 49.3271 214.687 49.1871C214.417 49.0471 214.127 48.9771 213.817 48.9771C213.517 48.9771 213.232 49.0471 212.962 49.1871C212.692 49.3171 212.452 49.5021 212.242 49.7421C212.042 49.9721 211.882 50.2421 211.762 50.5521C211.652 50.8621 211.597 51.1921 211.597 51.5421ZM221.163 44.4021V48.8721C221.283 48.7321 221.438 48.5921 221.628 48.4521C221.818 48.3121 222.028 48.1871 222.258 48.0771C222.488 47.9671 222.728 47.8771 222.978 47.8071C223.228 47.7371 223.463 47.7021 223.683 47.7021C224.113 47.7021 224.503 47.7871 224.853 47.9571C225.203 48.1171 225.498 48.3371 225.738 48.6171C225.988 48.8971 226.178 49.2271 226.308 49.6071C226.438 49.9871 226.503 50.3971 226.503 50.8371V54.8271C226.503 54.9471 226.468 55.0421 226.398 55.1121C226.328 55.1721 226.243 55.2021 226.143 55.2021H225.528C225.388 55.2021 225.298 55.1721 225.258 55.1121C225.218 55.0521 225.198 54.9621 225.198 54.8421V50.8371C225.198 50.5871 225.163 50.3521 225.093 50.1321C225.033 49.9021 224.933 49.7071 224.793 49.5471C224.653 49.3771 224.468 49.2421 224.238 49.1421C224.018 49.0421 223.748 48.9921 223.428 48.9921C223.188 48.9921 222.938 49.0371 222.678 49.1271C222.418 49.2171 222.178 49.3421 221.958 49.5021C221.748 49.6621 221.568 49.8521 221.418 50.0721C221.268 50.2821 221.183 50.5121 221.163 50.7621V54.8721C221.163 55.0921 221.053 55.2021 220.833 55.2021H220.218C219.988 55.2021 219.873 55.0921 219.873 54.8721V44.4021C219.873 44.1821 219.983 44.0721 220.203 44.0721H220.818C220.918 44.0721 220.998 44.1021 221.058 44.1621C221.128 44.2221 221.163 44.3021 221.163 44.4021ZM231.285 55.3221C231.245 55.3221 231.205 55.3221 231.165 55.3221C231.135 55.3321 231.095 55.3371 231.045 55.3371C230.805 55.3371 230.57 55.3171 230.34 55.2771C230.12 55.2471 229.925 55.1721 229.755 55.0521C229.585 54.9221 229.445 54.7371 229.335 54.4971C229.235 54.2571 229.185 53.9371 229.185 53.5371V49.0371H228.285C228.165 49.0371 228.07 49.0171 228 48.9771C227.94 48.9271 227.91 48.8371 227.91 48.7071V48.1521C227.91 48.0221 227.94 47.9371 228 47.8971C228.07 47.8571 228.165 47.8371 228.285 47.8371H229.185V45.7221C229.185 45.5621 229.27 45.4621 229.44 45.4221L230.205 45.3171C230.325 45.3171 230.4 45.3571 230.43 45.4371C230.47 45.5171 230.49 45.6071 230.49 45.7071V47.8371H231.6C231.82 47.8371 231.93 47.9521 231.93 48.1821V48.6771C231.93 48.9171 231.82 49.0371 231.6 49.0371H230.49V53.0571C230.49 53.3071 230.5 53.5021 230.52 53.6421C230.55 53.7821 230.595 53.8871 230.655 53.9571C230.725 54.0271 230.81 54.0721 230.91 54.0921C231.01 54.1021 231.135 54.1071 231.285 54.1071C231.535 54.1071 231.66 54.2321 231.66 54.4821V54.9621C231.66 55.1821 231.535 55.3021 231.285 55.3221Z" fill="white"/>
<path d="M149.712 32.0248H134.197C133.386 32.0248 132.807 31.9122 132.46 31.5743C132.113 31.2365 131.997 30.6734 131.997 29.8851V24.9299H145.659L147.28 18.9612H131.881V14.4565C131.881 13.6682 131.997 13.1051 132.344 12.7673C132.692 12.4294 133.271 12.3168 134.081 12.3168H149.017L150.754 6.01025H128.408C125.05 6.01025 123.313 7.69951 123.313 10.9654V33.3762C123.313 36.6421 125.05 38.3313 128.408 38.3313H147.975L149.712 32.0248Z" fill="white"/>
<path d="M212.698 32.0248H197.183C196.373 32.0248 195.794 31.9122 195.446 31.5743C195.099 31.2365 194.983 30.6734 194.983 29.8851V24.9299H208.646L210.267 18.9612H194.868V14.4565C194.868 13.6682 194.983 13.1051 195.331 12.7673C195.678 12.4294 196.257 12.3168 197.067 12.3168H212.004L213.74 6.01025H191.278C187.92 6.01025 186.184 7.69951 186.184 10.9654V33.3762C186.184 36.6421 187.92 38.3313 191.278 38.3313H210.846L212.698 32.0248Z" fill="white"/>
<path d="M20.1498 4.32193C21.5392 3.42099 22.8128 2.63268 23.9706 1.73174C27.4441 -0.633213 30.9177 -0.520596 34.507 1.73174C39.0225 4.54717 42.9592 8.03829 46.5485 11.8673C50.3694 15.8089 53.8429 19.8631 56.5059 24.593C57.0849 25.4939 57.4322 26.6201 57.7796 27.6336C58.2427 29.2103 57.3164 30.4491 55.5797 30.6743C54.1902 30.8995 52.6851 30.8995 51.1799 30.8995C50.2536 30.8995 49.9062 31.2374 49.9062 32.1383C49.9062 36.7556 49.9062 41.2603 49.9062 45.8776C49.9062 47.9047 49.0958 49.2561 47.4748 49.5939C45.9696 49.8192 44.3486 49.8192 42.7276 49.7065C42.4961 49.7065 41.9171 49.0308 42.0329 48.693C42.0329 48.3551 42.4961 47.7921 42.9592 47.6794C43.6539 47.5668 44.3486 47.6794 45.0433 47.5668C47.2432 47.5668 47.5906 47.229 47.5906 45.0893C47.5906 40.8098 47.5906 36.5304 47.5906 32.3635C47.5906 29.5481 48.6326 28.5346 51.5272 28.5346C52.8008 28.5346 54.0745 28.5346 55.5797 28.5346C55.3481 27.8589 55.3481 27.2958 55.1165 26.8453C53.4955 24.2551 51.8746 21.5523 50.022 19.1874C45.6222 13.6691 40.6435 8.60138 34.7385 4.54717C30.223 1.50651 28.602 1.39388 24.0864 4.43454C22.3497 5.67333 20.7287 7.02473 18.9919 8.37614C18.6446 8.71399 18.1814 9.05184 17.7183 9.5023C17.7183 7.58782 17.7183 6.01118 17.7183 4.20931C15.8657 4.20931 14.129 4.09669 12.3922 4.32193C12.0449 4.32193 11.5817 5.11024 11.466 5.56071C11.2344 6.68688 11.1186 7.81305 11.0028 8.93922C10.887 11.0789 10.7712 13.2187 10.7712 15.3584C10.7712 16.3719 10.4239 17.0476 9.84498 17.836C7.87665 20.5388 5.79254 23.129 4.05578 25.9444C2.4348 28.422 2.66637 28.6472 5.56097 28.6472C6.48724 28.6472 7.5293 28.6472 8.45557 28.7598C10.1923 28.985 11.0028 29.9986 11.0028 31.6878C11.0028 36.3051 11.0028 40.8098 11.0028 45.4271C11.0028 47.229 11.466 47.6794 13.3185 47.6794C14.0132 47.6794 14.7079 47.6794 15.4026 47.6794C16.2131 47.6794 16.6762 48.1299 16.5604 48.8056C16.4447 49.2561 15.8657 49.8192 15.4026 49.8192C14.129 49.9318 12.8554 49.9318 11.6975 49.8192C9.96076 49.7066 8.80292 48.4678 8.68714 46.5533C8.57135 42.8369 8.68714 39.2332 8.68714 35.5168C8.68714 34.3907 8.68714 33.2645 8.68714 32.1383C8.68714 31.35 8.45557 31.0121 7.5293 31.0121C6.02411 31.0121 4.6347 31.0121 3.1295 30.8995C1.16118 30.6743 0.119121 29.2103 0.929609 27.4084C2.08745 25.0434 3.82421 22.6785 5.21362 20.4262C5.56097 19.8631 5.79254 19.5252 6.25567 18.9621C7.99243 16.935 8.68714 14.5701 8.68714 12.0925C8.68714 9.61492 8.91871 7.47521 9.26606 5.11025C9.61341 2.85791 10.887 1.95697 13.0869 1.95697C14.3606 1.95697 15.6342 1.95697 16.792 1.95697C19.1077 1.73174 19.455 2.06959 20.1498 4.32193Z" fill="white"/>
<path d="M35.8968 51.6216C36.1283 48.4683 36.2441 45.315 36.4757 42.2744C36.5915 40.5851 36.3599 39.1211 35.2021 37.8823C33.118 35.7426 34.16 31.9136 35.5494 30.4496C36.823 29.0982 38.7914 29.0982 40.065 30.4496C41.4544 32.0262 42.4965 35.7426 40.4123 37.8823C39.2545 39.1211 39.0229 40.5851 39.1387 42.2744C39.3703 45.8781 39.6019 49.4819 39.8334 53.0856C39.9492 54.2118 39.1387 55.0001 37.9809 55.0001C36.7073 55.0001 36.0126 54.3244 36.0126 53.0856C35.8968 52.5225 35.8968 52.0721 35.8968 51.6216Z" fill="white"/>
<path d="M22.6967 42.1614C22.6967 45.4273 22.6967 48.8058 22.6967 52.0717C22.6967 52.6348 22.8125 53.3105 22.4651 53.7609C22.1178 54.2114 21.4231 54.6619 20.8442 54.7745C20.1495 54.8871 19.339 54.5493 19.2232 53.6483C19.1074 53.1979 19.1074 52.6348 19.1074 52.1843C19.2232 49.7067 19.339 47.2292 19.4548 44.8642C19.4548 43.9633 19.1074 43.2876 18.5285 42.6119C17.9496 42.0488 17.4864 41.2604 17.3707 40.4721C17.2549 38.5576 17.2549 36.6431 17.3707 34.7287C17.4864 32.9268 18.2969 31.5754 19.5705 30.3366C20.1495 29.7735 20.7284 29.4356 21.6547 29.6609C22.5809 29.9987 22.6967 30.7871 22.6967 31.4628C22.6967 33.8277 22.6967 36.1927 22.6967 38.5576C22.6967 39.7964 22.6967 41.0352 22.6967 42.1614Z" fill="white"/>
<path d="M27.6756 49.819C27.5598 50.1568 27.444 50.4947 27.444 50.8325C27.444 51.8461 27.5598 52.747 27.3282 53.7606C27.3282 54.0984 26.7493 54.4363 26.5177 54.7741C26.2862 54.4363 25.823 54.0984 25.823 53.7606C25.7073 51.8461 25.7073 49.9316 25.823 48.0171C25.823 47.454 26.2862 46.6657 26.7493 46.3278C27.9072 45.4269 28.1387 44.1881 28.0229 42.8367C27.7914 39.1204 27.5598 35.404 27.3282 31.575C27.2125 30.111 28.3703 29.21 29.7597 29.6605C30.8018 29.8857 31.1491 30.5614 31.1491 31.575C30.9175 34.9535 30.8018 38.4446 30.5702 41.8232C30.5702 42.4989 30.3386 43.2872 30.4544 43.9629C30.5702 44.6386 30.8018 45.4269 31.2649 45.7648C32.3069 46.6657 32.6543 47.6793 32.6543 49.0307C32.5385 50.6073 32.6543 52.0713 32.6543 53.648C32.6543 54.211 32.6543 54.8867 31.8438 54.7741C31.4965 54.6615 31.0333 54.0984 31.0333 53.648C30.9175 52.8596 31.0333 52.0713 30.9175 51.283C30.9175 50.8325 30.5702 50.3821 30.4544 49.9316C30.3386 50.3821 30.1071 50.8325 29.9913 51.1704C29.8755 51.9587 30.1071 52.8596 29.8755 53.648C29.7597 53.9858 29.4123 54.3237 29.065 54.7741C28.8334 54.4363 28.2545 54.0984 28.2545 53.7606C28.1387 52.8596 28.2545 51.8461 28.1387 50.8325C28.1387 50.4947 27.9072 50.1568 27.9072 49.819C27.9072 49.819 27.7914 49.819 27.6756 49.819Z" fill="white"/>
<path d="M27.6756 11.4165H21.5391V17.3852H27.6756V11.4165Z" fill="white"/>
<path d="M35.7803 11.4165H29.6438V17.3852H35.7803V11.4165Z" fill="white"/>
<path d="M27.6756 18.8496H21.5391V24.8183H27.6756V18.8496Z" fill="white"/>
<path d="M35.7803 18.8496H29.6438V24.8183H35.7803V18.8496Z" fill="white"/>
</svg>
