<svg width="173" height="40" viewBox="0 0 173 40" fill="none" xmlns="http://www.w3.org/2000/svg">
<mask id="mask0_30_536" style="mask-type:luminance" maskUnits="userSpaceOnUse" x="48" y="3" width="8" height="24">
<path d="M55.982 3.4704H48.5485V26.5386H55.982V3.4704Z" fill="white"/>
</mask>
<g mask="url(#mask0_30_536)">
<path d="M72.1038 18.991L67.2899 11.4217L42.1784 26.707L46.9923 34.2763L72.1038 18.991Z" fill="#FFDD00"/>
<path d="M67.247 11.3627L62.4331 3.7934L37.3216 19.0787L42.1355 26.648L67.247 11.3627Z" fill="#ED1C24"/>
<path d="M62.4338 3.80145L57.6199 -3.76785L32.5084 11.5175L37.3223 19.0868L62.4338 3.80145Z" fill="#010101"/>
</g>
<path d="M74.0465 26.6164H66.7728L58.4601 17.9365C57.7407 17.1545 57.3411 16.2162 57.3411 15.0432C57.3411 14.1048 57.6608 13.2447 58.3002 12.5409L65.7337 4.09558H72.8475L63.8953 13.3229C63.3358 13.8702 63.0161 14.4176 63.0161 14.965C63.0161 15.5124 63.4158 16.138 64.1351 16.9199L74.0465 26.6164Z" fill="#010101"/>
<path d="M81.0805 26.6164H75.1656V4.09558H81.0805V26.6164Z" fill="#010101"/>
<path d="M126.401 26.6164H110.575C108.257 26.6164 107.058 25.4435 107.058 23.1757V4.09558H112.972V20.5952C112.972 21.1426 113.052 21.5336 113.292 21.7682C113.532 22.0028 113.932 22.081 114.491 22.081H126.321V26.6164H126.401Z" fill="#010101"/>
<path d="M150.54 26.6164V7.53626C150.54 5.19034 151.739 4.09558 154.057 4.09558H166.366C168.684 4.09558 170.203 4.72116 171.162 5.89412C172.041 7.14528 172.521 8.94382 172.521 11.4461C172.521 16.6072 170.762 19.1877 167.325 19.1877H165.646V19.3441L173 26.5382H165.726L160.531 20.6734C160.451 20.5952 160.291 20.3606 159.971 20.126C159.732 19.8914 159.492 19.6568 159.412 19.5005C159.252 19.3441 159.092 19.1877 158.932 18.9531C158.772 18.7185 158.613 18.4839 158.533 18.2493C158.453 18.0147 158.453 17.7801 158.453 17.5455V16.9981C158.453 16.2162 158.693 15.6688 159.252 15.4342C159.812 15.1214 160.691 14.965 161.81 14.965H163.728C164.767 14.965 165.487 14.7304 165.886 14.183C166.286 13.6357 166.446 12.7755 166.446 11.6025C166.446 10.4296 166.206 9.64759 165.806 9.17841C165.407 8.70922 164.607 8.47463 163.488 8.47463H157.973C157.414 8.47463 157.014 8.55283 156.774 8.78742C156.534 9.02201 156.455 9.413 156.455 9.96038V26.46H150.54V26.6164Z" fill="#010101"/>
<path d="M60.1648 30.7151V37.6951C60.1648 37.8418 60.0914 37.9151 59.9448 37.9151H59.5248C59.3781 37.9151 59.3048 37.8418 59.3048 37.6951V30.7151C59.3048 30.5684 59.3781 30.4951 59.5248 30.4951H59.9448C60.0914 30.4951 60.1648 30.5684 60.1648 30.7151ZM62.6152 33.2451L62.6452 33.6951C62.7252 33.6018 62.8286 33.5084 62.9552 33.4151C63.0819 33.3218 63.2219 33.2384 63.3752 33.1651C63.5286 33.0918 63.6886 33.0318 63.8552 32.9851C64.0219 32.9384 64.1786 32.9151 64.3252 32.9151C64.6119 32.9151 64.8719 32.9718 65.1052 33.0851C65.3386 33.1918 65.5352 33.3384 65.6952 33.5251C65.8619 33.7118 65.9886 33.9318 66.0752 34.1851C66.1619 34.4384 66.2052 34.7118 66.2052 35.0051V37.6651C66.2052 37.7451 66.1819 37.8084 66.1352 37.8551C66.0886 37.8951 66.0319 37.9151 65.9652 37.9151H65.5552C65.4619 37.9151 65.4019 37.8951 65.3752 37.8551C65.3486 37.8151 65.3352 37.7551 65.3352 37.6751V35.0051C65.3352 34.8384 65.3052 34.6818 65.2452 34.5351C65.1919 34.3818 65.1119 34.2518 65.0052 34.1451C64.8986 34.0318 64.7686 33.9418 64.6152 33.8751C64.4686 33.8084 64.2986 33.7751 64.1052 33.7751C63.9386 33.7751 63.7686 33.8051 63.5952 33.8651C63.4219 33.9251 63.2652 34.0051 63.1252 34.1051C62.9852 34.2051 62.8686 34.3184 62.7752 34.4451C62.6886 34.5718 62.6452 34.7018 62.6452 34.8351V37.6951C62.6452 37.8418 62.5719 37.9151 62.4252 37.9151H62.0152C61.8619 37.9151 61.7852 37.8418 61.7852 37.6951V33.2451C61.7852 33.1718 61.8052 33.1184 61.8452 33.0851C61.8919 33.0451 61.9452 33.0251 62.0052 33.0251H62.3852C62.5252 33.0251 62.6019 33.0984 62.6152 33.2451ZM70.4582 30.4951H75.5982C75.6582 30.4951 75.7115 30.5151 75.7582 30.5551C75.8049 30.5884 75.8315 30.6418 75.8382 30.7151V31.1251C75.8382 31.1918 75.8182 31.2484 75.7782 31.2951C75.7382 31.3418 75.6782 31.3651 75.5982 31.3651H73.4682V37.6951C73.4682 37.7551 73.4482 37.8084 73.4082 37.8551C73.3682 37.8951 73.3115 37.9151 73.2382 37.9151H72.8282C72.7615 37.9151 72.7049 37.8951 72.6582 37.8551C72.6182 37.8151 72.5982 37.7618 72.5982 37.6951V31.3651H70.4582C70.3049 31.3651 70.2282 31.2851 70.2282 31.1251V30.7151C70.2282 30.5684 70.3049 30.4951 70.4582 30.4951ZM77.8015 30.7151V33.6951C77.8815 33.6018 77.9848 33.5084 78.1115 33.4151C78.2381 33.3218 78.3781 33.2384 78.5315 33.1651C78.6848 33.0918 78.8448 33.0318 79.0115 32.9851C79.1781 32.9384 79.3348 32.9151 79.4815 32.9151C79.7681 32.9151 80.0281 32.9718 80.2615 33.0851C80.4948 33.1918 80.6915 33.3384 80.8515 33.5251C81.0181 33.7118 81.1448 33.9318 81.2315 34.1851C81.3181 34.4384 81.3615 34.7118 81.3615 35.0051V37.6651C81.3615 37.7451 81.3381 37.8084 81.2915 37.8551C81.2448 37.8951 81.1881 37.9151 81.1215 37.9151H80.7115C80.6181 37.9151 80.5581 37.8951 80.5315 37.8551C80.5048 37.8151 80.4915 37.7551 80.4915 37.6751V35.0051C80.4915 34.8384 80.4681 34.6818 80.4215 34.5351C80.3815 34.3818 80.3148 34.2518 80.2215 34.1451C80.1281 34.0318 80.0048 33.9418 79.8515 33.8751C79.7048 33.8084 79.5248 33.7751 79.3115 33.7751C79.1515 33.7751 78.9848 33.8051 78.8115 33.8651C78.6381 33.9251 78.4781 34.0084 78.3315 34.1151C78.1915 34.2218 78.0715 34.3484 77.9715 34.4951C77.8715 34.6351 77.8148 34.7884 77.8015 34.9551V37.6951C77.8015 37.8418 77.7281 37.9151 77.5815 37.9151H77.1715C77.0181 37.9151 76.9415 37.8418 76.9415 37.6951V30.7151C76.9415 30.5684 77.0148 30.4951 77.1615 30.4951H77.5715C77.6381 30.4951 77.6915 30.5151 77.7315 30.5551C77.7781 30.5951 77.8015 30.6484 77.8015 30.7151ZM84.8397 38.0351C84.513 38.0351 84.2063 37.9684 83.9197 37.8351C83.633 37.7018 83.383 37.5218 83.1697 37.2951C82.9563 37.0618 82.7863 36.7884 82.6597 36.4751C82.5397 36.1618 82.4797 35.8284 82.4797 35.4751C82.4797 35.1218 82.5397 34.7884 82.6597 34.4751C82.7863 34.1618 82.9563 33.8884 83.1697 33.6551C83.383 33.4218 83.633 33.2384 83.9197 33.1051C84.2063 32.9718 84.513 32.9051 84.8397 32.9051C85.1463 32.9051 85.433 32.9684 85.6997 33.0951C85.973 33.2151 86.2097 33.3818 86.4097 33.5951C86.6163 33.8084 86.7797 34.0584 86.8997 34.3451C87.0197 34.6318 87.0797 34.9384 87.0797 35.2651V35.3851C87.0797 35.5851 87.0163 35.7118 86.8897 35.7651C86.763 35.8184 86.6097 35.8451 86.4297 35.8451H83.3597C83.4197 36.2451 83.5863 36.5718 83.8597 36.8251C84.1397 37.0718 84.4663 37.1951 84.8397 37.1951C85.0397 37.1951 85.2397 37.1584 85.4397 37.0851C85.6463 37.0118 85.8297 36.9084 85.9897 36.7751C86.0363 36.7284 86.0963 36.7051 86.1697 36.7051C86.2163 36.7051 86.253 36.7251 86.2797 36.7651L86.5597 37.1851C86.5863 37.2118 86.5997 37.2418 86.5997 37.2751C86.593 37.3218 86.5697 37.3618 86.5297 37.3951C86.4963 37.4284 86.463 37.4551 86.4297 37.4751C86.203 37.6284 85.9597 37.7618 85.6997 37.8751C85.4397 37.9818 85.153 38.0351 84.8397 38.0351ZM83.3997 35.1051H86.2297C86.1963 34.9184 86.1363 34.7418 86.0497 34.5751C85.963 34.4084 85.8563 34.2651 85.7297 34.1451C85.603 34.0184 85.4597 33.9218 85.2997 33.8551C85.1463 33.7818 84.9863 33.7451 84.8197 33.7451C84.6463 33.7451 84.483 33.7818 84.3297 33.8551C84.1763 33.9218 84.0363 34.0184 83.9097 34.1451C83.7897 34.2651 83.683 34.4084 83.5897 34.5751C83.503 34.7418 83.4397 34.9184 83.3997 35.1051ZM95.3267 37.5951H94.9367C94.8567 37.5951 94.79 37.5351 94.7367 37.4151L92.4367 32.0051L91.8867 37.6951C91.8867 37.8418 91.81 37.9151 91.6567 37.9151H91.2367C91.09 37.9151 91.0167 37.8418 91.0167 37.6951C91.1367 36.5218 91.2567 35.3584 91.3767 34.2051C91.4967 33.0518 91.6167 31.8884 91.7367 30.7151C91.7367 30.6484 91.76 30.5951 91.8067 30.5551C91.8534 30.5151 91.91 30.4951 91.9767 30.4951H92.5967C92.7034 30.4951 92.7767 30.5584 92.8167 30.6851L95.1367 36.2651C95.5234 35.3318 95.91 34.4018 96.2967 33.4751C96.6834 32.5484 97.07 31.6184 97.4567 30.6851C97.49 30.5584 97.56 30.4951 97.6667 30.4951H98.3167C98.3834 30.4951 98.4367 30.5184 98.4767 30.5651C98.5167 30.6051 98.5367 30.6551 98.5367 30.7151L99.2667 37.6951C99.2667 37.8418 99.19 37.9151 99.0367 37.9151H98.6167C98.47 37.9151 98.3967 37.8418 98.3967 37.6951L97.8367 32.0051L95.5367 37.4151C95.49 37.5351 95.42 37.5951 95.3267 37.5951ZM100.195 35.4751C100.195 35.1218 100.261 34.7884 100.395 34.4751C100.528 34.1618 100.708 33.8884 100.935 33.6551C101.168 33.4218 101.441 33.2384 101.755 33.1051C102.068 32.9718 102.401 32.9051 102.755 32.9051C103.108 32.9051 103.441 32.9718 103.755 33.1051C104.068 33.2384 104.341 33.4218 104.575 33.6551C104.808 33.8884 104.991 34.1618 105.125 34.4751C105.258 34.7884 105.325 35.1218 105.325 35.4751C105.325 35.8284 105.258 36.1618 105.125 36.4751C104.991 36.7884 104.808 37.0618 104.575 37.2951C104.341 37.5218 104.068 37.7018 103.755 37.8351C103.441 37.9684 103.108 38.0351 102.755 38.0351C102.401 38.0351 102.068 37.9684 101.755 37.8351C101.441 37.7018 101.168 37.5218 100.935 37.2951C100.708 37.0618 100.528 36.7884 100.395 36.4751C100.261 36.1618 100.195 35.8284 100.195 35.4751ZM101.005 35.4751C101.005 35.7151 101.051 35.9418 101.145 36.1551C101.238 36.3684 101.361 36.5551 101.515 36.7151C101.675 36.8751 101.861 37.0018 102.075 37.0951C102.288 37.1884 102.515 37.2351 102.755 37.2351C102.995 37.2351 103.221 37.1884 103.435 37.0951C103.648 37.0018 103.835 36.8751 103.995 36.7151C104.155 36.5551 104.281 36.3684 104.375 36.1551C104.468 35.9418 104.515 35.7151 104.515 35.4751C104.515 35.2351 104.468 35.0084 104.375 34.7951C104.281 34.5818 104.155 34.3951 103.995 34.2351C103.835 34.0684 103.648 33.9384 103.435 33.8451C103.221 33.7518 102.995 33.7051 102.755 33.7051C102.515 33.7051 102.288 33.7518 102.075 33.8451C101.861 33.9384 101.675 34.0684 101.515 34.2351C101.361 34.3951 101.238 34.5818 101.145 34.7951C101.051 35.0084 101.005 35.2351 101.005 35.4751ZM107.478 33.2251L107.528 33.5951C107.615 33.4418 107.748 33.2918 107.928 33.1451C108.108 32.9984 108.351 32.9251 108.658 32.9251C108.771 32.9251 108.881 32.9418 108.988 32.9751C109.101 33.0084 109.201 33.0484 109.288 33.0951C109.381 33.1351 109.455 33.1784 109.508 33.2251C109.568 33.2718 109.598 33.3118 109.598 33.3451C109.598 33.3584 109.591 33.3851 109.578 33.4251L109.328 33.8951C109.288 33.9618 109.245 33.9951 109.198 33.9951C109.165 33.9951 109.138 33.9884 109.118 33.9751C109.105 33.9618 109.091 33.9518 109.078 33.9451C109.011 33.9051 108.928 33.8718 108.828 33.8451C108.728 33.8118 108.631 33.7918 108.538 33.7851C108.391 33.7851 108.255 33.8251 108.128 33.9051C108.001 33.9851 107.895 34.0884 107.808 34.2151C107.721 34.3351 107.651 34.4751 107.598 34.6351C107.551 34.7884 107.528 34.9418 107.528 35.0951V37.6951C107.528 37.8418 107.455 37.9151 107.308 37.9151H106.898C106.745 37.9151 106.668 37.8418 106.668 37.6951V33.2251C106.668 33.1584 106.688 33.1051 106.728 33.0651C106.775 33.0251 106.828 33.0051 106.888 33.0051H107.248C107.321 33.0051 107.375 33.0284 107.408 33.0751C107.448 33.1151 107.471 33.1651 107.478 33.2251ZM111.307 33.2451L111.337 33.6951C111.417 33.6018 111.52 33.5084 111.647 33.4151C111.773 33.3218 111.913 33.2384 112.067 33.1651C112.22 33.0918 112.38 33.0318 112.547 32.9851C112.713 32.9384 112.87 32.9151 113.017 32.9151C113.303 32.9151 113.563 32.9718 113.797 33.0851C114.03 33.1918 114.227 33.3384 114.387 33.5251C114.553 33.7118 114.68 33.9318 114.767 34.1851C114.853 34.4384 114.897 34.7118 114.897 35.0051V37.6651C114.897 37.7451 114.873 37.8084 114.827 37.8551C114.78 37.8951 114.723 37.9151 114.657 37.9151H114.247C114.153 37.9151 114.093 37.8951 114.067 37.8551C114.04 37.8151 114.027 37.7551 114.027 37.6751V35.0051C114.027 34.8384 113.997 34.6818 113.937 34.5351C113.883 34.3818 113.803 34.2518 113.697 34.1451C113.59 34.0318 113.46 33.9418 113.307 33.8751C113.16 33.8084 112.99 33.7751 112.797 33.7751C112.63 33.7751 112.46 33.8051 112.287 33.8651C112.113 33.9251 111.957 34.0051 111.817 34.1051C111.677 34.2051 111.56 34.3184 111.467 34.4451C111.38 34.5718 111.337 34.7018 111.337 34.8351V37.6951C111.337 37.8418 111.263 37.9151 111.117 37.9151H110.707C110.553 37.9151 110.477 37.8418 110.477 37.6951V33.2451C110.477 33.1718 110.497 33.1184 110.537 33.0851C110.583 33.0451 110.637 33.0251 110.697 33.0251H111.077C111.217 33.0251 111.293 33.0984 111.307 33.2451ZM117.245 33.2251V37.6951C117.245 37.8418 117.171 37.9151 117.025 37.9151H116.605C116.458 37.9151 116.385 37.8418 116.385 37.6951V33.2251C116.385 33.0784 116.458 33.0051 116.605 33.0051H117.025C117.171 33.0051 117.245 33.0784 117.245 33.2251ZM116.185 31.6251C116.185 31.4518 116.245 31.3051 116.365 31.1851C116.491 31.0584 116.641 30.9951 116.815 30.9951C116.995 30.9951 117.145 31.0584 117.265 31.1851C117.385 31.3051 117.445 31.4518 117.445 31.6251C117.445 31.7984 117.385 31.9451 117.265 32.0651C117.145 32.1851 116.995 32.2451 116.815 32.2451C116.641 32.2451 116.491 32.1851 116.365 32.0651C116.245 31.9451 116.185 31.7984 116.185 31.6251ZM119.695 33.2451L119.725 33.6951C119.805 33.6018 119.909 33.5084 120.035 33.4151C120.162 33.3218 120.302 33.2384 120.455 33.1651C120.609 33.0918 120.769 33.0318 120.935 32.9851C121.102 32.9384 121.259 32.9151 121.405 32.9151C121.692 32.9151 121.952 32.9718 122.185 33.0851C122.419 33.1918 122.615 33.3384 122.775 33.5251C122.942 33.7118 123.069 33.9318 123.155 34.1851C123.242 34.4384 123.285 34.7118 123.285 35.0051V37.6651C123.285 37.7451 123.262 37.8084 123.215 37.8551C123.169 37.8951 123.112 37.9151 123.045 37.9151H122.635C122.542 37.9151 122.482 37.8951 122.455 37.8551C122.429 37.8151 122.415 37.7551 122.415 37.6751V35.0051C122.415 34.8384 122.385 34.6818 122.325 34.5351C122.272 34.3818 122.192 34.2518 122.085 34.1451C121.979 34.0318 121.849 33.9418 121.695 33.8751C121.549 33.8084 121.379 33.7751 121.185 33.7751C121.019 33.7751 120.849 33.8051 120.675 33.8651C120.502 33.9251 120.345 34.0051 120.205 34.1051C120.065 34.2051 119.949 34.3184 119.855 34.4451C119.769 34.5718 119.725 34.7018 119.725 34.8351V37.6951C119.725 37.8418 119.652 37.9151 119.505 37.9151H119.095C118.942 37.9151 118.865 37.8418 118.865 37.6951V33.2451C118.865 33.1718 118.885 33.1184 118.925 33.0851C118.972 33.0451 119.025 33.0251 119.085 33.0251H119.465C119.605 33.0251 119.682 33.0984 119.695 33.2451ZM128.184 37.7751V37.1751C128.104 37.2751 128.01 37.3784 127.904 37.4851C127.797 37.5851 127.677 37.6751 127.544 37.7551C127.417 37.8351 127.28 37.8984 127.134 37.9451C126.994 37.9984 126.847 38.0251 126.694 38.0251C126.354 38.0251 126.04 37.9584 125.754 37.8251C125.467 37.6918 125.22 37.5118 125.014 37.2851C124.814 37.0518 124.654 36.7818 124.534 36.4751C124.42 36.1618 124.364 35.8284 124.364 35.4751C124.364 35.1218 124.424 34.7884 124.544 34.4751C124.664 34.1618 124.827 33.8918 125.034 33.6651C125.247 33.4318 125.494 33.2484 125.774 33.1151C126.06 32.9818 126.367 32.9151 126.694 32.9151C127.034 32.9151 127.327 32.9918 127.574 33.1451C127.827 33.2918 128.03 33.4718 128.184 33.6851V33.2751C128.184 33.2018 128.204 33.1418 128.244 33.0951C128.284 33.0484 128.354 33.0251 128.454 33.0251H128.774C128.847 33.0251 128.914 33.0484 128.974 33.0951C129.034 33.1351 129.064 33.1951 129.064 33.2751V37.4451C129.064 37.8651 129 38.2318 128.874 38.5451C128.754 38.8651 128.584 39.1284 128.364 39.3351C128.15 39.5484 127.894 39.7051 127.594 39.8051C127.3 39.9118 126.984 39.9651 126.644 39.9651C126.364 39.9651 126.11 39.9318 125.884 39.8651C125.664 39.8051 125.457 39.7118 125.264 39.5851C125.184 39.5384 125.144 39.4951 125.144 39.4551C125.144 39.4418 125.15 39.4218 125.164 39.3951C125.177 39.3684 125.187 39.3518 125.194 39.3451L125.474 38.8651C125.507 38.8251 125.554 38.8051 125.614 38.8051C125.647 38.8051 125.684 38.8184 125.724 38.8451C125.85 38.9318 125.994 39.0018 126.154 39.0551C126.32 39.1084 126.48 39.1351 126.634 39.1351C126.82 39.1351 127.004 39.1018 127.184 39.0351C127.37 38.9751 127.537 38.8851 127.684 38.7651C127.83 38.6518 127.95 38.5118 128.044 38.3451C128.137 38.1784 128.184 37.9884 128.184 37.7751ZM125.214 35.4751C125.214 35.7151 125.25 35.9384 125.324 36.1451C125.404 36.3518 125.51 36.5318 125.644 36.6851C125.784 36.8384 125.944 36.9618 126.124 37.0551C126.304 37.1418 126.494 37.1851 126.694 37.1851C126.887 37.1851 127.074 37.1418 127.254 37.0551C127.434 36.9684 127.59 36.8484 127.724 36.6951C127.864 36.5418 127.974 36.3651 128.054 36.1651C128.14 35.9584 128.184 35.7384 128.184 35.5051C128.184 35.2718 128.144 35.0518 128.064 34.8451C127.99 34.6318 127.884 34.4451 127.744 34.2851C127.61 34.1251 127.454 33.9984 127.274 33.9051C127.094 33.8118 126.9 33.7651 126.694 33.7651C126.494 33.7651 126.304 33.8118 126.124 33.9051C125.944 33.9918 125.784 34.1151 125.644 34.2751C125.51 34.4284 125.404 34.6084 125.324 34.8151C125.25 35.0218 125.214 35.2418 125.214 35.4751ZM134.725 37.0651H138.335C138.395 37.0651 138.445 37.0851 138.485 37.1251C138.532 37.1651 138.555 37.2218 138.555 37.2951V37.6951C138.555 37.7551 138.535 37.8084 138.495 37.8551C138.455 37.8951 138.402 37.9151 138.335 37.9151H134.085C133.939 37.9151 133.865 37.8418 133.865 37.6951V30.7151C133.865 30.6551 133.885 30.6051 133.925 30.5651C133.965 30.5184 134.022 30.4951 134.095 30.4951H134.505C134.652 30.4951 134.725 30.5684 134.725 30.7151V37.0651ZM140.467 33.2251V37.6951C140.467 37.8418 140.394 37.9151 140.247 37.9151H139.827C139.681 37.9151 139.607 37.8418 139.607 37.6951V33.2251C139.607 33.0784 139.681 33.0051 139.827 33.0051H140.247C140.394 33.0051 140.467 33.0784 140.467 33.2251ZM139.407 31.6251C139.407 31.4518 139.467 31.3051 139.587 31.1851C139.714 31.0584 139.864 30.9951 140.037 30.9951C140.217 30.9951 140.367 31.0584 140.487 31.1851C140.607 31.3051 140.667 31.4518 140.667 31.6251C140.667 31.7984 140.607 31.9451 140.487 32.0651C140.367 32.1851 140.217 32.2451 140.037 32.2451C139.864 32.2451 139.714 32.1851 139.587 32.0651C139.467 31.9451 139.407 31.7984 139.407 31.6251ZM145.498 37.7751V37.1751C145.418 37.2751 145.325 37.3784 145.218 37.4851C145.111 37.5851 144.991 37.6751 144.858 37.7551C144.731 37.8351 144.595 37.8984 144.448 37.9451C144.308 37.9984 144.161 38.0251 144.008 38.0251C143.668 38.0251 143.355 37.9584 143.068 37.8251C142.781 37.6918 142.535 37.5118 142.328 37.2851C142.128 37.0518 141.968 36.7818 141.848 36.4751C141.735 36.1618 141.678 35.8284 141.678 35.4751C141.678 35.1218 141.738 34.7884 141.858 34.4751C141.978 34.1618 142.141 33.8918 142.348 33.6651C142.561 33.4318 142.808 33.2484 143.088 33.1151C143.375 32.9818 143.681 32.9151 144.008 32.9151C144.348 32.9151 144.641 32.9918 144.888 33.1451C145.141 33.2918 145.345 33.4718 145.498 33.6851V33.2751C145.498 33.2018 145.518 33.1418 145.558 33.0951C145.598 33.0484 145.668 33.0251 145.768 33.0251H146.088C146.161 33.0251 146.228 33.0484 146.288 33.0951C146.348 33.1351 146.378 33.1951 146.378 33.2751V37.4451C146.378 37.8651 146.315 38.2318 146.188 38.5451C146.068 38.8651 145.898 39.1284 145.678 39.3351C145.465 39.5484 145.208 39.7051 144.908 39.8051C144.615 39.9118 144.298 39.9651 143.958 39.9651C143.678 39.9651 143.425 39.9318 143.198 39.8651C142.978 39.8051 142.771 39.7118 142.578 39.5851C142.498 39.5384 142.458 39.4951 142.458 39.4551C142.458 39.4418 142.465 39.4218 142.478 39.3951C142.491 39.3684 142.501 39.3518 142.508 39.3451L142.788 38.8651C142.821 38.8251 142.868 38.8051 142.928 38.8051C142.961 38.8051 142.998 38.8184 143.038 38.8451C143.165 38.9318 143.308 39.0018 143.468 39.0551C143.635 39.1084 143.795 39.1351 143.948 39.1351C144.135 39.1351 144.318 39.1018 144.498 39.0351C144.685 38.9751 144.851 38.8851 144.998 38.7651C145.145 38.6518 145.265 38.5118 145.358 38.3451C145.451 38.1784 145.498 37.9884 145.498 37.7751ZM142.528 35.4751C142.528 35.7151 142.565 35.9384 142.638 36.1451C142.718 36.3518 142.825 36.5318 142.958 36.6851C143.098 36.8384 143.258 36.9618 143.438 37.0551C143.618 37.1418 143.808 37.1851 144.008 37.1851C144.201 37.1851 144.388 37.1418 144.568 37.0551C144.748 36.9684 144.905 36.8484 145.038 36.6951C145.178 36.5418 145.288 36.3651 145.368 36.1651C145.455 35.9584 145.498 35.7384 145.498 35.5051C145.498 35.2718 145.458 35.0518 145.378 34.8451C145.305 34.6318 145.198 34.4451 145.058 34.2851C144.925 34.1251 144.768 33.9984 144.588 33.9051C144.408 33.8118 144.215 33.7651 144.008 33.7651C143.808 33.7651 143.618 33.8118 143.438 33.9051C143.258 33.9918 143.098 34.1151 142.958 34.2751C142.825 34.4284 142.718 34.6084 142.638 34.8151C142.565 35.0218 142.528 35.2418 142.528 35.4751ZM148.905 30.7151V33.6951C148.985 33.6018 149.088 33.5084 149.215 33.4151C149.342 33.3218 149.482 33.2384 149.635 33.1651C149.788 33.0918 149.948 33.0318 150.115 32.9851C150.282 32.9384 150.438 32.9151 150.585 32.9151C150.872 32.9151 151.132 32.9718 151.365 33.0851C151.598 33.1918 151.795 33.3384 151.955 33.5251C152.122 33.7118 152.248 33.9318 152.335 34.1851C152.422 34.4384 152.465 34.7118 152.465 35.0051V37.6651C152.465 37.7451 152.442 37.8084 152.395 37.8551C152.348 37.8951 152.292 37.9151 152.225 37.9151H151.815C151.722 37.9151 151.662 37.8951 151.635 37.8551C151.608 37.8151 151.595 37.7551 151.595 37.6751V35.0051C151.595 34.8384 151.572 34.6818 151.525 34.5351C151.485 34.3818 151.418 34.2518 151.325 34.1451C151.232 34.0318 151.108 33.9418 150.955 33.8751C150.808 33.8084 150.628 33.7751 150.415 33.7751C150.255 33.7751 150.088 33.8051 149.915 33.8651C149.742 33.9251 149.582 34.0084 149.435 34.1151C149.295 34.2218 149.175 34.3484 149.075 34.4951C148.975 34.6351 148.918 34.7884 148.905 34.9551V37.6951C148.905 37.8418 148.832 37.9151 148.685 37.9151H148.275C148.122 37.9151 148.045 37.8418 148.045 37.6951V30.7151C148.045 30.5684 148.118 30.4951 148.265 30.4951H148.675C148.742 30.4951 148.795 30.5151 148.835 30.5551C148.882 30.5951 148.905 30.6484 148.905 30.7151ZM155.653 37.9951C155.627 37.9951 155.6 37.9951 155.573 37.9951C155.553 38.0018 155.527 38.0051 155.493 38.0051C155.333 38.0051 155.177 37.9918 155.023 37.9651C154.877 37.9451 154.747 37.8951 154.633 37.8151C154.52 37.7284 154.427 37.6051 154.353 37.4451C154.287 37.2851 154.253 37.0718 154.253 36.8051V33.8051H153.653C153.573 33.8051 153.51 33.7918 153.463 33.7651C153.423 33.7318 153.403 33.6718 153.403 33.5851V33.2151C153.403 33.1284 153.423 33.0718 153.463 33.0451C153.51 33.0184 153.573 33.0051 153.653 33.0051H154.253V31.5951C154.253 31.4884 154.31 31.4218 154.423 31.3951L154.933 31.3251C155.013 31.3251 155.063 31.3518 155.083 31.4051C155.11 31.4584 155.123 31.5184 155.123 31.5851V33.0051H155.863C156.01 33.0051 156.083 33.0818 156.083 33.2351V33.5651C156.083 33.7251 156.01 33.8051 155.863 33.8051H155.123V36.4851C155.123 36.6518 155.13 36.7818 155.143 36.8751C155.163 36.9684 155.193 37.0384 155.233 37.0851C155.28 37.1318 155.337 37.1618 155.403 37.1751C155.47 37.1818 155.553 37.1851 155.653 37.1851C155.82 37.1851 155.903 37.2684 155.903 37.4351V37.7551C155.903 37.9018 155.82 37.9818 155.653 37.9951Z" fill="#414042"/>
<path d="M102.901 22.2372H92.1906C91.6311 22.2372 91.2314 22.159 90.9916 21.9244C90.7518 21.6899 90.6719 21.2989 90.6719 20.7515V17.3108H100.104L101.223 13.1663H90.592V10.0384C90.592 9.49106 90.6719 9.10008 90.9117 8.86549C91.1515 8.63089 91.5511 8.55269 92.1106 8.55269H102.422L103.621 4.17365H88.1941C85.8761 4.17365 84.6771 5.34661 84.6771 7.61433V23.1756C84.6771 25.4433 85.8761 26.6163 88.1941 26.6163H101.702L102.901 22.2372Z" fill="#010101"/>
<path d="M146.383 22.2372H135.673C135.113 22.2372 134.713 22.159 134.474 21.9244C134.234 21.6899 134.154 21.2989 134.154 20.7515V17.3108H143.586L144.705 13.1663H134.074V10.0384C134.074 9.49106 134.154 9.10008 134.394 8.86549C134.634 8.63089 135.033 8.55269 135.593 8.55269H145.904L147.103 4.17365H131.596C129.278 4.17365 128.079 5.34661 128.079 7.61433V23.1756C128.079 25.4433 129.278 26.6163 131.596 26.6163H145.104L146.383 22.2372Z" fill="#010101"/>
<path d="M13.4593 3.001C14.4185 2.37542 15.2977 1.82804 16.097 1.20246C18.4949 -0.439681 20.8929 -0.361484 23.3707 1.20246C26.488 3.15739 29.2056 5.58151 31.6834 8.24022C34.3211 10.9771 36.7191 13.7922 38.5575 17.0765C38.9571 17.7021 39.1969 18.4841 39.4367 19.1878C39.7564 20.2826 39.117 21.1428 37.918 21.2992C36.9588 21.4556 35.9198 21.4556 34.8807 21.4556C34.2412 21.4556 34.0014 21.6901 34.0014 22.3157C34.0014 25.5218 34.0014 28.6497 34.0014 31.8558C34.0014 33.2633 33.4419 34.2017 32.3229 34.4363C31.2838 34.5927 30.1648 34.5927 29.0457 34.5145C28.8859 34.5145 28.4862 34.0453 28.5662 33.8107C28.5662 33.5761 28.8859 33.1851 29.2056 33.1069C29.6852 33.0287 30.1648 33.1069 30.6444 33.0288C32.163 33.0288 32.4028 32.7942 32.4028 31.3084C32.4028 28.3369 32.4028 25.3654 32.4028 22.4721C32.4028 20.5172 33.1222 19.8134 35.1204 19.8134C35.9997 19.8134 36.8789 19.8134 37.918 19.8134C37.7581 19.3442 37.7581 18.9532 37.5983 18.6405C36.4793 16.8419 35.3602 14.9652 34.0814 13.323C31.044 9.49137 27.607 5.9725 23.5306 3.15739C20.4133 1.04607 19.2942 0.967865 16.177 3.07919C14.978 3.93936 13.859 4.87773 12.66 5.8161C12.4202 6.05069 12.1005 6.28528 11.7808 6.59807C11.7808 5.26872 11.7808 4.17396 11.7808 2.9228C10.5019 2.9228 9.30296 2.8446 8.104 3.001C7.86421 3.001 7.54449 3.54838 7.46456 3.86116C7.3047 4.64314 7.22477 5.42511 7.14484 6.20708C7.06491 7.69283 6.98498 9.17858 6.98498 10.6643C6.98498 11.3681 6.74519 11.8373 6.34554 12.3847C4.98672 14.2614 3.54798 16.0599 2.34902 18.0149C1.23 19.7352 1.38986 19.8916 3.38811 19.8916C4.02756 19.8916 4.74693 19.8916 5.38637 19.9698C6.58533 20.1262 7.14484 20.83 7.14484 22.0029C7.14484 25.209 7.14484 28.3369 7.14484 31.543C7.14484 32.7942 7.46456 33.1069 8.74344 33.1069C9.22303 33.1069 9.70261 33.1069 10.1822 33.1069C10.7417 33.1069 11.0614 33.4197 10.9815 33.8889C10.9016 34.2017 10.5019 34.5927 10.1822 34.5927C9.30296 34.6709 8.42372 34.6709 7.62442 34.5927C6.42547 34.5145 5.62616 33.6543 5.54623 32.325C5.4663 29.7445 5.54623 27.2422 5.54623 24.6616C5.54623 23.8797 5.54623 23.0977 5.54623 22.3157C5.54623 21.7683 5.38637 21.5338 4.74693 21.5338C3.70784 21.5338 2.74867 21.5337 1.70958 21.4556C0.350762 21.2992 -0.368611 20.2826 0.190901 19.0314C0.990205 17.3893 2.18916 15.7472 3.14832 14.1832C3.38811 13.7922 3.54797 13.5576 3.8677 13.1666C5.06665 11.7591 5.54623 10.1169 5.54623 8.39661C5.54623 6.67627 5.70609 5.19052 5.94588 3.54838C6.18568 1.98443 7.06491 1.35885 8.58358 1.35885C9.46282 1.35885 10.3421 1.35885 11.1414 1.35885C12.74 1.20246 12.9798 1.43705 13.4593 3.001Z" fill="#010101"/>
<path d="M24.3301 35.8442C24.49 33.6547 24.5699 31.4651 24.7298 29.3538C24.8097 28.1809 24.6499 27.1643 23.8506 26.3041C22.4118 24.8184 23.1312 22.1597 24.0903 21.1431C24.9696 20.2047 26.3284 20.2047 27.2076 21.1431C28.1668 22.2379 28.8862 24.8184 27.4474 26.3041C26.6481 27.1643 26.4883 28.1809 26.5682 29.3538C26.728 31.8561 26.8879 34.3584 27.0478 36.8608C27.1277 37.6427 26.5682 38.1901 25.7689 38.1901C24.8897 38.1901 24.4101 37.7209 24.4101 36.8608C24.3301 36.4698 24.3301 36.157 24.3301 35.8442Z" fill="#010101"/>
<path d="M15.2176 29.2751C15.2176 31.5428 15.2176 33.8888 15.2176 36.1565C15.2176 36.5475 15.2975 37.0167 15.0577 37.3295C14.8179 37.6422 14.3383 37.955 13.9387 38.0332C13.4591 38.1114 12.8996 37.8768 12.8197 37.2513C12.7397 36.9385 12.7397 36.5475 12.7397 36.2347C12.8197 34.5144 12.8996 32.794 12.9795 31.1519C12.9795 30.5263 12.7397 30.0571 12.3401 29.5879C11.9404 29.1969 11.6207 28.6495 11.5408 28.1022C11.4609 26.7728 11.4609 25.4434 11.5408 24.1141C11.6207 22.8629 12.1802 21.9246 13.0595 21.0644C13.4591 20.6734 13.8588 20.4388 14.4982 20.5952C15.1376 20.8298 15.2176 21.3772 15.2176 21.8464C15.2176 23.4885 15.2176 25.1307 15.2176 26.7728C15.2176 27.633 15.2176 28.4931 15.2176 29.2751Z" fill="#010101"/>
<path d="M18.6547 34.5925C18.5748 34.8271 18.4949 35.0617 18.4949 35.2963C18.4949 36 18.5748 36.6256 18.415 37.3294C18.415 37.564 18.0153 37.7986 17.8554 38.0332C17.6956 37.7986 17.3759 37.564 17.3759 37.3294C17.2959 36 17.2959 34.6707 17.3759 33.3413C17.3759 32.9503 17.6956 32.403 18.0153 32.1684C18.8146 31.5428 18.9745 30.6826 18.8945 29.7442C18.7347 27.1637 18.5748 24.5832 18.415 21.9245C18.335 20.9079 19.1343 20.2824 20.0935 20.5951C20.8129 20.7515 21.0527 21.2207 21.0527 21.9245C20.8928 24.2704 20.8129 26.6945 20.653 29.0405C20.653 29.5097 20.4931 30.057 20.5731 30.5262C20.653 30.9954 20.8129 31.5428 21.1326 31.7774C21.852 32.403 22.0918 33.1067 22.0918 34.0451C22.0118 35.1399 22.0918 36.1564 22.0918 37.2512C22.0918 37.6422 22.0918 38.1114 21.5322 38.0332C21.2924 37.955 20.9727 37.564 20.9727 37.2512C20.8928 36.7038 20.9727 36.1564 20.8928 35.6091C20.8928 35.2963 20.653 34.9835 20.5731 34.6707C20.4931 34.9835 20.3333 35.2963 20.2534 35.5309C20.1734 36.0782 20.3333 36.7038 20.1734 37.2512C20.0935 37.4858 19.8537 37.7204 19.6139 38.0332C19.4541 37.7986 19.0544 37.564 19.0544 37.3294C18.9745 36.7038 19.0544 36 18.9745 35.2963C18.9745 35.0617 18.8146 34.8271 18.8146 34.5925C18.8146 34.5925 18.7347 34.5925 18.6547 34.5925Z" fill="#010101"/>
<path d="M18.6548 7.9272H14.4185V12.0717H18.6548V7.9272Z" fill="#010101"/>
<path d="M24.2497 7.92725H20.0134V12.0717H24.2497V7.92725Z" fill="#010101"/>
<path d="M18.6548 13.0885H14.4185V17.233H18.6548V13.0885Z" fill="#010101"/>
<path d="M24.2497 13.0885H20.0134V17.233H24.2497V13.0885Z" fill="#010101"/>
</svg>
