<svg width="46" height="46" viewBox="0 0 46 46" fill="none" xmlns="http://www.w3.org/2000/svg">
<rect width="46" height="46" rx="23" fill="#ED1C24"/>
<path d="M3.832 26.996V24.996H8.36V26.996H3.832ZM13.1154 30.692C12.3367 30.692 11.5634 30.5907 10.7954 30.388C10.0274 30.1747 9.37671 29.876 8.84337 29.492L9.85138 27.508C10.278 27.8173 10.774 28.0627 11.3394 28.244C11.9047 28.4253 12.4754 28.516 13.0514 28.516C13.702 28.516 14.214 28.388 14.5874 28.132C14.9607 27.876 15.1474 27.524 15.1474 27.076C15.1474 26.6493 14.982 26.3133 14.6514 26.068C14.3207 25.8227 13.7874 25.7 13.0514 25.7H11.8674V23.988L14.9874 20.452L15.2754 21.38H9.40338V19.3H17.2434V20.98L14.1394 24.516L12.8274 23.764H13.5794C14.9554 23.764 15.9954 24.0733 16.6994 24.692C17.4034 25.3107 17.7554 26.1053 17.7554 27.076C17.7554 27.7053 17.59 28.2973 17.2594 28.852C16.9287 29.396 16.422 29.8387 15.7394 30.18C15.0567 30.5213 14.182 30.692 13.1154 30.692ZM22.506 30.692C21.7273 30.692 20.954 30.5907 20.186 30.388C19.418 30.1747 18.7673 29.876 18.234 29.492L19.242 27.508C19.6687 27.8173 20.1647 28.0627 20.73 28.244C21.2953 28.4253 21.866 28.516 22.442 28.516C23.0927 28.516 23.6047 28.388 23.978 28.132C24.3513 27.876 24.538 27.524 24.538 27.076C24.538 26.6493 24.3727 26.3133 24.042 26.068C23.7113 25.8227 23.178 25.7 22.442 25.7H21.258V23.988L24.378 20.452L24.666 21.38H18.794V19.3H26.634V20.98L23.53 24.516L22.218 23.764H22.97C24.346 23.764 25.386 24.0733 26.09 24.692C26.794 25.3107 27.146 26.1053 27.146 27.076C27.146 27.7053 26.9807 28.2973 26.65 28.852C26.3193 29.396 25.8127 29.8387 25.13 30.18C24.4473 30.5213 23.5727 30.692 22.506 30.692ZM29.8025 30.5L37.4505 19.3H39.3545L31.7065 30.5H29.8025ZM30.7785 25.348C30.2345 25.348 29.7545 25.2253 29.3385 24.98C28.9225 24.724 28.5918 24.3667 28.3465 23.908C28.1118 23.4387 27.9945 22.8893 27.9945 22.26C27.9945 21.6307 28.1118 21.0867 28.3465 20.628C28.5918 20.1693 28.9225 19.812 29.3385 19.556C29.7545 19.3 30.2345 19.172 30.7785 19.172C31.3225 19.172 31.8025 19.3 32.2185 19.556C32.6345 19.812 32.9598 20.1693 33.1945 20.628C33.4292 21.0867 33.5465 21.6307 33.5465 22.26C33.5465 22.8893 33.4292 23.4387 33.1945 23.908C32.9598 24.3667 32.6345 24.724 32.2185 24.98C31.8025 25.2253 31.3225 25.348 30.7785 25.348ZM30.7785 24.036C31.1305 24.036 31.4132 23.892 31.6265 23.604C31.8398 23.3053 31.9465 22.8573 31.9465 22.26C31.9465 21.6627 31.8398 21.22 31.6265 20.932C31.4132 20.6333 31.1305 20.484 30.7785 20.484C30.4372 20.484 30.1545 20.6333 29.9305 20.932C29.7172 21.22 29.6105 21.6627 29.6105 22.26C29.6105 22.8467 29.7172 23.2893 29.9305 23.588C30.1545 23.8867 30.4372 24.036 30.7785 24.036ZM38.3785 30.628C37.8452 30.628 37.3652 30.5053 36.9385 30.26C36.5225 30.004 36.1972 29.6467 35.9625 29.188C35.7278 28.7187 35.6105 28.1693 35.6105 27.54C35.6105 26.9107 35.7278 26.3667 35.9625 25.908C36.1972 25.4493 36.5225 25.092 36.9385 24.836C37.3652 24.58 37.8452 24.452 38.3785 24.452C38.9332 24.452 39.4185 24.58 39.8345 24.836C40.2505 25.092 40.5758 25.4493 40.8105 25.908C41.0452 26.3667 41.1625 26.9107 41.1625 27.54C41.1625 28.1693 41.0452 28.7187 40.8105 29.188C40.5758 29.6467 40.2505 30.004 39.8345 30.26C39.4185 30.5053 38.9332 30.628 38.3785 30.628ZM38.3785 29.316C38.7305 29.316 39.0132 29.172 39.2265 28.884C39.4398 28.5853 39.5465 28.1373 39.5465 27.54C39.5465 26.9533 39.4398 26.5107 39.2265 26.212C39.0132 25.9133 38.7305 25.764 38.3785 25.764C38.0372 25.764 37.7545 25.9133 37.5305 26.212C37.3172 26.5 37.2105 26.9427 37.2105 27.54C37.2105 28.1373 37.3172 28.5853 37.5305 28.884C37.7545 29.172 38.0372 29.316 38.3785 29.316Z" fill="white"/>
</svg>
