<svg width="26" height="19" viewBox="0 0 26 19" fill="none" xmlns="http://www.w3.org/2000/svg">
<path d="M0 19C0 12.664 0 6.34395 0 0C8.99462 0 17.9892 0 27 0C27 6.32803 27 12.6561 27 19C18.0054 19 9.01882 19 0 19ZM17.1826 14.4948C17.118 14.2878 17.0857 14.1764 17.0535 14.0649C16.6663 12.8869 16.2791 11.7009 15.8757 10.5308C15.795 10.3 15.8434 10.1806 16.037 10.0452C17.0615 9.32887 18.078 8.58861 19.0944 7.86426C19.1912 7.80059 19.28 7.72895 19.3687 7.65731C19.3606 7.63343 19.3526 7.60955 19.3445 7.59363C19.2396 7.59363 19.1347 7.59363 19.0218 7.59363C17.7956 7.59363 16.5695 7.57771 15.3352 7.60159C14.9803 7.60955 14.8512 7.49016 14.7544 7.17176C14.3914 6.0176 14.0042 4.87139 13.625 3.71722C13.5928 3.6217 13.5524 3.53414 13.4879 3.36699C13.4234 3.55006 13.383 3.65354 13.3427 3.75702C12.9716 4.88731 12.6005 6.02556 12.2214 7.15584C12.052 7.66527 12.1569 7.58567 11.6002 7.59363C10.3821 7.60159 9.16403 7.59363 7.94592 7.59363C7.84105 7.59363 7.73618 7.59363 7.63938 7.59363C7.72005 7.72895 7.80072 7.79263 7.88945 7.85631C8.91395 8.5886 9.93845 9.33682 10.971 10.0612C11.1646 10.1965 11.1969 10.3159 11.1243 10.5308C10.7451 11.6372 10.3821 12.7516 10.0191 13.8659C9.95459 14.049 9.89812 14.2401 9.81745 14.5027C9.97879 14.3913 10.0756 14.3276 10.1724 14.256C11.1969 13.5237 12.2295 12.7914 13.2459 12.0432C13.4476 11.8919 13.5847 11.8999 13.7622 12.0511C13.98 12.2262 14.2139 12.3854 14.4398 12.5446C15.3352 13.1734 16.2226 13.8102 17.1826 14.4948Z" fill="#ED1C24"/>
<path d="M17.1826 14.4948C16.2226 13.8102 15.3352 13.1734 14.4559 12.5367C14.2301 12.3695 13.9881 12.2183 13.7783 12.0431C13.5928 11.8919 13.4637 11.884 13.262 12.0352C12.2456 12.7834 11.213 13.5077 10.1885 14.248C10.0917 14.3117 10.003 14.3833 9.83359 14.4948C9.92232 14.2241 9.97879 14.0411 10.0353 13.858C10.3983 12.7436 10.7613 11.6292 11.1404 10.5228C11.213 10.3079 11.1808 10.1885 10.9872 10.0532C9.95459 9.32886 8.93009 8.5886 7.90559 7.84834C7.81686 7.78466 7.73619 7.72098 7.65552 7.58567C7.76039 7.58567 7.86526 7.58567 7.96206 7.58567C9.18017 7.58567 10.3983 7.58567 11.6164 7.58567C12.1649 7.58567 12.0681 7.65731 12.2375 7.14788C12.6167 6.01759 12.9878 4.8873 13.3588 3.74905C13.3911 3.64558 13.4314 3.5421 13.504 3.35902C13.5686 3.51822 13.6089 3.61374 13.6412 3.70925C14.0203 4.86342 14.4156 6.00963 14.7705 7.1638C14.8673 7.48219 14.9964 7.60159 15.3514 7.59363C16.5775 7.56975 17.8037 7.58567 19.0379 7.58567C19.1428 7.58567 19.2477 7.58567 19.3606 7.58567C19.3687 7.60955 19.3768 7.63343 19.3848 7.64935C19.2961 7.72098 19.1993 7.78466 19.1106 7.8563C18.0941 8.5886 17.0777 9.3209 16.0532 10.0373C15.8515 10.1726 15.8112 10.292 15.8918 10.5228C16.2952 11.7009 16.6743 12.8789 17.0696 14.057C17.0858 14.1764 17.118 14.2878 17.1826 14.4948Z" fill="#FFDD00"/>
</svg>
